<?xml version="1.0" encoding="UTF-8" standalone="no"?>
<!-- Created with Inkscape (http://www.inkscape.org/) -->

<svg
   width="14.816656mm"
   height="13.229163mm"
   viewBox="0 0 14.816656 13.229163"
   version="1.1"
   id="svg1"
   inkscape:version="1.3.2 (091e20e, 2023-11-25, custom)"
   sodipodi:docname="000webhost-logo_sm.svg"
   xmlns:inkscape="http://www.inkscape.org/namespaces/inkscape"
   xmlns:sodipodi="http://sodipodi.sourceforge.net/DTD/sodipodi-0.dtd"
   xmlns="http://www.w3.org/2000/svg"
   xmlns:svg="http://www.w3.org/2000/svg">
  <sodipodi:namedview
     id="namedview1"
     pagecolor="#ffffff"
     bordercolor="#000000"
     borderopacity="0.25"
     inkscape:showpageshadow="2"
     inkscape:pageopacity="0.0"
     inkscape:pagecheckerboard="0"
     inkscape:deskcolor="#d1d1d1"
     inkscape:document-units="mm"
     inkscape:zoom="0.59972222"
     inkscape:cx="114.21955"
     inkscape:cy="169.24502"
     inkscape:window-width="2400"
     inkscape:window-height="1321"
     inkscape:window-x="1304"
     inkscape:window-y="1346"
     inkscape:window-maximized="1"
     inkscape:current-layer="layer1" />
  <defs
     id="defs1" />
  <g
     inkscape:label="Layer 1"
     inkscape:groupmode="layer"
     id="layer1"
     transform="translate(-74.6125,-103.71667)">
    <path
       fill="#ff5c62"
       d="m 79.54645,109.00841 c -0.672042,6.06583 4.869392,7.00167 6.443133,5.25912 -2.770716,6.75957 -9.279202,-0.88715 -6.443133,-5.25912 z m -0.9652,-1.05834 c -2.401623,0.34317 -5.971117,7.94094 -1.743604,7.07496 -2.599002,-0.93133 0.0164,-6.30687 1.743604,-7.07496 z m 0,-0.98345 c -0.80645,-0.39159 -3.747294,0.76702 -3.96875,3.10012 0.553508,-1.2401 1.992312,-2.92047 3.96875,-3.10012 z m 1.058333,-0.74163 c -1.23825,-0.98081 -2.714625,0.14499 -3.175,0.40217 1.23825,-1.46315 3.095625,-1.22211 3.175,-0.40217 z m 1.284817,-0.65617 c 0.932921,-0.68103 -0.46646,-1.97379 -1.813983,-0.93133 0.483923,-0.16669 2.10767,-0.38894 1.813983,0.93133 z m 1.249362,0.52917 c 1.575594,-1.62454 0.259821,-2.25478 -0.152929,-2.28812 2.202921,-0.6133 1.223698,1.98967 0.152929,2.28812 z M 82.55,107.05578 c 1.691217,0.67363 6.731794,-2.23467 2.718329,-2.80987 0.916252,0.23018 1.121833,2.15265 -2.718065,2.80987 z m -1.058333,1.57507 c 1.127389,3.32158 11.19452,3.0136 6.859852,-1.47453 0.936625,1.53935 -1.397265,4.27779 -6.859588,1.47453 z"
       id="path2"
       style="stroke-width:0.264583" />
  </g>
</svg>
