<?xml version="1.0" encoding="UTF-8" standalone="no"?>
<svg
   xmlns:dc="http://purl.org/dc/elements/1.1/"
   xmlns:cc="http://creativecommons.org/ns#"
   xmlns:rdf="http://www.w3.org/1999/02/22-rdf-syntax-ns#"
   xmlns:svg="http://www.w3.org/2000/svg"
   xmlns="http://www.w3.org/2000/svg"
   xmlns:sodipodi="http://sodipodi.sourceforge.net/DTD/sodipodi-0.dtd"
   xmlns:inkscape="http://www.inkscape.org/namespaces/inkscape"
   viewBox="0 0 378.09999 129.27893"
   height="129.27893"
   width="378.10001"
   xml:space="preserve"
   id="svg3680"
   version="1.1"
   sodipodi:docname="British American Tobacco Logo.svg"
   inkscape:version="0.92.4 (5da689c313, 2019-01-14)"><sodipodi:namedview
     pagecolor="#ffffff"
     bordercolor="#666666"
     borderopacity="1"
     objecttolerance="10"
     gridtolerance="10"
     guidetolerance="10"
     inkscape:pageopacity="0"
     inkscape:pageshadow="2"
     inkscape:window-width="1366"
     inkscape:window-height="705"
     id="namedview44"
     showgrid="false"
     inkscape:zoom="2.2656108"
     inkscape:cx="185.09371"
     inkscape:cy="58.036893"
     inkscape:window-x="-8"
     inkscape:window-y="-8"
     inkscape:window-maximized="1"
     inkscape:current-layer="svg3680" /><metadata
     id="metadata3686"><rdf:RDF><cc:Work
         rdf:about=""><dc:format>image/svg+xml</dc:format><dc:type
           rdf:resource="http://purl.org/dc/dcmitype/StillImage" /><dc:title></dc:title></cc:Work></rdf:RDF></metadata><defs
     id="defs3684"><clipPath
       id="clipPath3696"
       clipPathUnits="userSpaceOnUse"><path
         id="path3694"
         d="M 0,251.467 H 415.935 V 0 H 0 Z"
         inkscape:connector-curvature="0" /></clipPath></defs><g
     id="g79"
     transform="translate(0.11034552,0.27408014)"><g
       transform="matrix(1.3333333,0,0,-1.3333333,335.23599,54.791591)"
       id="g3702"><path
         id="path3704"
         style="fill:#24336b;fill-opacity:1;fill-rule:nonzero;stroke:none"
         d="m 0,0 c 1.812,-10.01 -4.81,-20.642 -17.176,-30.05 -0.118,-0.09 0.008,-0.268 0.132,-0.187 9.859,6.444 20.299,13.667 27.372,23.257 2.532,3.434 4.668,7.555 5.043,11.871 0.7,8.057 -4.682,15.027 -11.43,18.813 -4.493,2.522 -9.429,4.105 -14.437,5.238 -8.722,1.986 -17.701,2.616 -26.629,2.498 -4.537,-0.059 -9.072,-0.304 -13.59,-0.733 -4.361,-0.414 -8.723,-0.961 -13.038,-1.714 -4.282,-0.748 -8.543,-1.574 -12.768,-2.6 -0.458,-0.112 -0.916,-0.224 -1.374,-0.339 -0.137,-0.035 -0.102,-0.241 0.041,-0.227 C -36.898,29.703 -3.48,19.226 0,0"
         inkscape:connector-curvature="0" /></g><g
       transform="matrix(1.3333333,0,0,-1.3333333,286.38439,6.3631927)"
       id="g3706"><path
         id="path3708"
         style="fill:#24336b;fill-opacity:1;fill-rule:nonzero;stroke:none"
         d="m 0,0 c -0.142,-0.006 -0.17,0.199 -0.031,0.228 3.153,0.637 6.323,1.2 9.499,1.71 5.053,0.814 10.132,1.49 15.227,1.981 8.766,0.847 17.894,1.353 26.681,0.1 1.974,-0.283 3.934,-0.674 5.853,-1.216 4.786,-1.353 9.693,-3.931 11.017,-9.075 0.865,-3.363 0.339,-6.947 -0.707,-10.204 -2.034,-6.332 -6,-11.981 -10.201,-17.054 -0.261,-0.316 -0.525,-0.629 -0.789,-0.941 -0.084,-0.098 -0.242,-0.007 -0.196,0.115 1.742,4.588 2.503,9.796 1.608,14.649 C 56.64,-12.548 50.928,-7.295 44.512,-4.464 36.724,-1.028 28.153,-0.188 19.733,0.154 13.159,0.423 6.571,0.295 0,0"
         inkscape:connector-curvature="0" /></g><g
       transform="matrix(1.3333333,0,0,-1.3333333,157.78026,95.295457)"
       id="g3710"><path
         id="path3712"
         style="fill:#24336b;fill-opacity:1;fill-rule:nonzero;stroke:none"
         d="M 0,0 8.925,-11.778 H -23.276 L -33.469,-25.231 H -48.246 L -2.973,34.521 42.3,-25.231 H 27.522 L -2.973,15.018 -14.352,0 Z M 60.529,12.652 H 72.307 V -25.232 H 60.529 Z m -29.37,18.492 h 70.518 V 19.366 H 31.159 Z M -52.1,-8.193 c 0,-9.395 -7.644,-17.038 -17.039,-17.038 l -49.196,-10e-4 v 10e-4 15.596 h 11.778 v -3.818 h 37.418 c 2.905,0 5.26,2.354 5.26,5.26 0,2.905 -2.355,5.259 -5.26,5.259 h -49.196 V 8.845 l 39.543,10e-4 c 2.904,0 5.259,2.354 5.259,5.259 0,2.906 -2.355,5.26 -5.259,5.26 h -27.765 v -3.818 h -11.778 v 15.597 h 39.543 c 9.395,0 17.038,-7.644 17.038,-17.039 0,-2.265 -0.448,-4.426 -1.254,-6.405 6.374,-2.468 10.908,-8.659 10.908,-15.893"
         inkscape:connector-curvature="0" /></g></g></svg>