<?xml version="1.0" encoding="UTF-8" standalone="no"?>
<!-- Created with Inkscape (http://www.inkscape.org/) -->

<svg
   width="26mm"
   height="30mm"
   viewBox="0 0 26 29.999999"
   version="1.1"
   id="svg1"
   xml:space="preserve"
   inkscape:version="1.3.2 (091e20e, 2023-11-25, custom)"
   sodipodi:docname="figma-white.svg"
   xmlns:inkscape="http://www.inkscape.org/namespaces/inkscape"
   xmlns:sodipodi="http://sodipodi.sourceforge.net/DTD/sodipodi-0.dtd"
   xmlns="http://www.w3.org/2000/svg"
   xmlns:svg="http://www.w3.org/2000/svg"><sodipodi:namedview
     id="namedview1"
     pagecolor="#ffffff"
     bordercolor="#000000"
     borderopacity="0.25"
     inkscape:showpageshadow="2"
     inkscape:pageopacity="0.0"
     inkscape:pagecheckerboard="0"
     inkscape:deskcolor="#d1d1d1"
     inkscape:document-units="mm"
     inkscape:zoom="2.9825758"
     inkscape:cx="49.286259"
     inkscape:cy="165.79629"
     inkscape:window-width="2400"
     inkscape:window-height="1321"
     inkscape:window-x="1304"
     inkscape:window-y="1346"
     inkscape:window-maximized="1"
     inkscape:current-layer="layer1" /><defs
     id="defs1" /><g
     inkscape:label="Layer 1"
     inkscape:groupmode="layer"
     id="layer1"><g
       style="fill:none"
       id="g1"
       transform="matrix(0.03292232,0,0,0.03292232,1.1482232,20.691846)"><rect
         width="240"
         height="86.111801"
         fill="#000000"
         fill-opacity="0"
         transform="scale(3)"
         id="rect1"
         x="0"
         y="0" /><path
         d="M 0,0.0125977 V 201.62 l 25.9411,0.08 V 105.692 H 88.4868 V 80.3152 H 25.9411 V 25.3771 H 107.398 V 0 Z"
         fill="#000000"
         id="path1" /><path
         d="m 154.09,40.9379 c 9.344,0 16.918,-7.5745 16.918,-16.9181 0,-9.3436 -7.574,-16.91807 -16.918,-16.91807 -9.343,0 -16.918,7.57447 -16.918,16.91807 0,9.3436 7.575,16.9181 16.918,16.9181 z"
         fill="#000000"
         id="path2" /><path
         d="M 140.894,66.315 V 201.66 h 25.941 V 66.315 Z"
         fill="#000000"
         id="path3" /><path
         fill-rule="evenodd"
         clip-rule="evenodd"
         d="m 263.05,62.3675 c -34.448,0 -58.488,29.1341 -58.488,63.7245 0,34.591 24.04,63.725 58.488,63.725 15.771,0 28.768,-6.106 38.227,-16.045 v 18.019 c 0,22.424 -17.614,41.167 -40.603,41.167 -8.263,0 -16.473,-3.203 -23.014,-7.711 l -12.998,22.512 c 10.381,6.692 22.743,10.576 36.012,10.576 36.752,0 66.544,-29.793 66.544,-66.544 V 66.315 H 301.277 V 78.4129 C 291.818,68.4731 278.821,62.3675 263.05,62.3675 Z m -32.547,63.7245 c 0,-21.471 16.424,-38.3474 35.367,-38.3474 18.944,0 35.367,16.8764 35.367,38.3474 0,21.471 -16.423,38.348 -35.367,38.348 -18.943,0 -35.367,-16.877 -35.367,-38.348 z"
         fill="#000000"
         id="path4" /><path
         d="m 420.691,87.7446 c -15.339,0 -27.774,12.9984 -27.774,28.3374 V 201.66 H 366.976 V 66.315 h 25.941 v 12.3984 c 7.601,-9.8257 18.799,-16.3459 33.413,-16.3459 18.177,0 32.128,9.0283 40.208,22.8452 8.985,-13.3459 23.641,-22.8452 41.281,-22.8452 29.525,0 47.902,23.8206 48.076,53.2915 0,0.089 0,0.178 0,0.268 v 0.005 0.004 0.005 c 0,0.047 0,0.094 0,0.141 v 85.578 h -25.941 v -85.578 c 0,-15.339 -12.435,-28.3374 -27.774,-28.3374 -15.34,0 -27.774,12.9984 -27.774,28.3374 v 85.578 h -25.941 v -85.578 c 0,-15.339 -12.435,-28.3374 -27.774,-28.3374 z"
         fill="#000000"
         id="path5" /><path
         fill-rule="evenodd"
         clip-rule="evenodd"
         d="M 694.059,81.6576 C 682.518,69.741 666.713,62.3675 648.38,62.3675 c -38.592,0 -65.98,32.6749 -65.98,71.6195 0,38.945 27.388,71.62 65.98,71.62 18.333,0 34.138,-7.373 45.679,-19.29 V 201.66 H 720 V 66.315 h -25.941 z m -85.718,52.3294 c 0,-25.837 19.783,-46.2424 42.859,-46.2424 23.075,0 42.859,20.4054 42.859,46.2424 0,25.838 -19.784,46.243 -42.859,46.243 -23.076,0 -42.859,-20.405 -42.859,-46.243 z"
         fill="#000000"
         id="path6" /></g><g
       style="fill:none"
       id="g2"
       transform="matrix(0.06018286,0,0,0.05720597,14.695295,2.9759397)"><g
         id="Group"><path
           id="Rectangle 55"
           d="M 164,46.5 C 164,67.763 146.763,85 125.5,85 H 86 V 8.0001 h 39.5 c 21.263,0 38.5,17.237 38.5,38.4999 z"
           stroke="#000000"
           stroke-width="15.081" /><path
           id="Rectangle 55_2"
           d="M 8,46.5 C 8,67.763 25.237,85 46.5,85 H 86 V 8.0001 H 46.5 C 25.237,8.0001 8,25.2371 8,46.5 Z"
           stroke="#000000"
           stroke-width="15.081" /><path
           id="Rectangle 55_3"
           d="m 8,123.501 c 0,21.263 17.237,38.5 38.5,38.5 H 86 V 85.0011 H 46.5 C 25.237,85.0011 8,102.238 8,123.501 Z"
           stroke="#000000"
           stroke-width="15.081" /><path
           id="Rectangle 55_4"
           d="M 8,200.5 C 8,221.763 25.4854,239 46.7484,239 v 0 C 68.2875,239 86,221.539 86,200 V 162 H 46.5 C 25.237,162 8,179.237 8,200.5 Z"
           stroke="#000000"
           stroke-width="15.081" /><path
           id="Rectangle 55_5"
           d="m 86,123.501 c 0,21.263 17.237,38.5 38.5,38.5 h 1 c 21.263,0 38.5,-17.237 38.5,-38.5 v 0 c 0,-21.263 -17.237,-38.4999 -38.5,-38.4999 h -1 c -21.263,0 -38.5,17.2369 -38.5,38.4999 z"
           stroke="#000000"
           stroke-width="15.081" /></g></g><g
       style="fill:none"
       id="g3"
       transform="matrix(0.0329216,0,0,0.0329216,1.8391999,2.9298235)"><rect
         width="95.022598"
         height="142.534"
         fill="#000000"
         fill-opacity="0"
         transform="matrix(3,0,0,3,1.46603,2.19946)"
         id="rect1-8"
         x="0"
         y="0" /><path
         d="m 144,216 c 0,-39.359 31.907,-71.267 71.267,-71.267 v 0 c 39.359,0 71.267,31.908 71.267,71.267 v 0 c 0,39.36 -31.908,71.267 -71.267,71.267 v 0 C 175.907,287.267 144,255.36 144,216 Z"
         fill="#1abcfe"
         id="path1-0" /><path
         d="m 1.46603,358.534 c 0,-39.359 31.90727,-71.267 71.26697,-71.267 H 144 v 71.267 c 0,39.36 -31.907,71.267 -71.267,71.267 v 0 c -39.3597,0 -71.26697,-31.907 -71.26697,-71.267 z"
         fill="#0acf83"
         id="path2-7" /><path
         d="M 144,2.19946 V 144.733 h 71.267 c 39.36,0 71.267,-31.907 71.267,-71.2666 v 0 c 0,-39.3596 -31.907,-71.26694 -71.267,-71.26694 z"
         fill="#ff7262"
         id="path3-1" /><path
         d="m 1.46603,73.4664 c 0,39.3596 31.90727,71.2666 71.26697,71.2666 H 144 V 2.19941 H 72.733 C 33.3733,2.19941 1.46603,34.1067 1.46603,73.4664 Z"
         fill="#f24e1e"
         id="path4-0" /><path
         d="m 1.46603,216 c 0,39.36 31.90727,71.267 71.26697,71.267 H 144 V 144.733 H 72.733 C 33.3733,144.733 1.46603,176.641 1.46603,216 Z"
         fill="#a259ff"
         id="path5-2" /></g><path
       style="fill:#000000;stroke:#000000;stroke-width:0.124428;stroke-linecap:square;stroke-dasharray:none"
       d="M 1.012757,18.885711 H 24.987243"
       id="path7"
       sodipodi:nodetypes="cc" /><path
       style="fill:#000000;stroke:#000000;stroke-width:0.107686;stroke-linecap:square;stroke-dasharray:none"
       d="M 13,0.85718255 V 18.814204"
       id="path7-7"
       sodipodi:nodetypes="cc" /></g></svg>
