<?xml version="1.0" encoding="UTF-8" standalone="no"?>
<svg
   width="26mm"
   height="8mm"
   viewBox="0 0 98.267716 30.236212"
   fill="none"
   version="1.1"
   id="svg5"
   sodipodi:docname="Figma-Icon-Watermark.svg"
   xml:space="preserve"
   inkscape:version="1.3.2 (091e20e, 2023-11-25, custom)"
   xmlns:inkscape="http://www.inkscape.org/namespaces/inkscape"
   xmlns:sodipodi="http://sodipodi.sourceforge.net/DTD/sodipodi-0.dtd"
   xmlns="http://www.w3.org/2000/svg"
   xmlns:svg="http://www.w3.org/2000/svg"><defs
     id="defs5" /><sodipodi:namedview
     id="namedview5"
     pagecolor="#ffffff"
     bordercolor="#000000"
     borderopacity="0.25"
     inkscape:showpageshadow="2"
     inkscape:pageopacity="0.0"
     inkscape:pagecheckerboard="0"
     inkscape:deskcolor="#d1d1d1"
     inkscape:zoom="4.6747615"
     inkscape:cx="88.88154"
     inkscape:cy="95.512894"
     inkscape:window-width="2400"
     inkscape:window-height="1321"
     inkscape:window-x="1304"
     inkscape:window-y="1346"
     inkscape:window-maximized="1"
     inkscape:current-layer="svg5"
     inkscape:document-units="mm" /><g
     id="g6"
     transform="translate(0.92298087,-0.94590758)"><rect
       width="16.893837"
       height="25.340771"
       fill="#000000"
       fill-opacity="0"
       id="rect1"
       x="1.46603"
       y="3.1380031"
       style="stroke-width:0.177788" /><path
       d="m 9.912952,15.808361 c 0,-2.332513 1.890889,-4.223462 4.223462,-4.223462 v 0 c 2.332514,0 4.223462,1.890949 4.223462,4.223462 v 0 c 0,2.332573 -1.890948,4.223462 -4.223462,4.223462 v 0 c -2.332573,0 -4.223462,-1.890889 -4.223462,-4.223462 z"
       fill="#1abcfe"
       id="path1"
       style="stroke-width:0.0592625" /><path
       d="m 1.46603,24.255285 c 0,-2.332514 1.8909052,-4.223462 4.2234601,-4.223462 H 9.912952 v 4.223462 c 0,2.332573 -1.8908892,4.223463 -4.2234619,4.223463 v 0 c -2.3325549,0 -4.2234601,-1.89089 -4.2234601,-4.223463 z"
       fill="#0acf83"
       id="path2"
       style="stroke-width:0.0592625" /><path
       d="m 9.912952,3.138003 v 8.446896 h 4.223462 c 2.332572,0 4.223462,-1.8908887 4.223462,-4.2234377 v 0 c 0,-2.332549 -1.89089,-4.2234583 -4.223462,-4.2234583 z"
       fill="#ff7262"
       id="path3"
       style="stroke-width:0.0592625" /><path
       d="m 1.46603,7.3614613 c 0,2.332549 1.8909052,4.2234377 4.2234601,4.2234377 H 9.912952 V 3.138 H 5.6894901 C 3.3569352,3.138 1.46603,5.0289064 1.46603,7.3614613 Z"
       fill="#f24e1e"
       id="path4"
       style="stroke-width:0.0592625" /><path
       d="m 1.46603,15.808361 c 0,2.332573 1.8909052,4.223462 4.2234601,4.223462 H 9.912952 V 11.584899 H 5.6894901 c -2.3325549,0 -4.2234601,1.890949 -4.2234601,4.223462 z"
       fill="#a259ff"
       id="path5"
       style="stroke-width:0.0592625" /><g
       style="fill:none"
       id="g5"
       transform="matrix(0.10007324,0,0,0.10007324,22.902992,3.1377874)"><rect
         width="240"
         height="86.111801"
         fill="#000000"
         fill-opacity="0"
         transform="scale(3)"
         id="rect1-6"
         x="0"
         y="0" /><path
         d="M 0,0.0125977 V 201.62 l 25.9411,0.08 V 105.692 H 88.4868 V 80.3152 H 25.9411 V 25.3771 H 107.398 V 0 Z"
         fill="#000000"
         id="path1-2" /><path
         d="m 154.09,40.9379 c 9.344,0 16.918,-7.5745 16.918,-16.9181 0,-9.3436 -7.574,-16.91807 -16.918,-16.91807 -9.343,0 -16.918,7.57447 -16.918,16.91807 0,9.3436 7.575,16.9181 16.918,16.9181 z"
         fill="#000000"
         id="path2-8" /><path
         d="M 140.894,66.315 V 201.66 h 25.941 V 66.315 Z"
         fill="#000000"
         id="path3-5" /><path
         fill-rule="evenodd"
         clip-rule="evenodd"
         d="m 263.05,62.3675 c -34.448,0 -58.488,29.1341 -58.488,63.7245 0,34.591 24.04,63.725 58.488,63.725 15.771,0 28.768,-6.106 38.227,-16.045 v 18.019 c 0,22.424 -17.614,41.167 -40.603,41.167 -8.263,0 -16.473,-3.203 -23.014,-7.711 l -12.998,22.512 c 10.381,6.692 22.743,10.576 36.012,10.576 36.752,0 66.544,-29.793 66.544,-66.544 V 66.315 H 301.277 V 78.4129 C 291.818,68.4731 278.821,62.3675 263.05,62.3675 Z m -32.547,63.7245 c 0,-21.471 16.424,-38.3474 35.367,-38.3474 18.944,0 35.367,16.8764 35.367,38.3474 0,21.471 -16.423,38.348 -35.367,38.348 -18.943,0 -35.367,-16.877 -35.367,-38.348 z"
         fill="#000000"
         id="path4-1" /><path
         d="m 420.691,87.7446 c -15.339,0 -27.774,12.9984 -27.774,28.3374 V 201.66 H 366.976 V 66.315 h 25.941 v 12.3984 c 7.601,-9.8257 18.799,-16.3459 33.413,-16.3459 18.177,0 32.128,9.0283 40.208,22.8452 8.985,-13.3459 23.641,-22.8452 41.281,-22.8452 29.525,0 47.902,23.8206 48.076,53.2915 0,0.089 0,0.178 0,0.268 v 0.005 0.004 0.005 c 0,0.047 0,0.094 0,0.141 v 85.578 h -25.941 v -85.578 c 0,-15.339 -12.435,-28.3374 -27.774,-28.3374 -15.34,0 -27.774,12.9984 -27.774,28.3374 v 85.578 h -25.941 v -85.578 c 0,-15.339 -12.435,-28.3374 -27.774,-28.3374 z"
         fill="#000000"
         id="path5-3" /><path
         fill-rule="evenodd"
         clip-rule="evenodd"
         d="M 694.059,81.6576 C 682.518,69.741 666.713,62.3675 648.38,62.3675 c -38.592,0 -65.98,32.6749 -65.98,71.6195 0,38.945 27.388,71.62 65.98,71.62 18.333,0 34.138,-7.373 45.679,-19.29 V 201.66 H 720 V 66.315 h -25.941 z m -85.718,52.3294 c 0,-25.837 19.783,-46.2424 42.859,-46.2424 23.075,0 42.859,20.4054 42.859,46.2424 0,25.838 -19.784,46.243 -42.859,46.243 -23.076,0 -42.859,-20.405 -42.859,-46.243 z"
         fill="#000000"
         id="path6" /></g></g></svg>
