<svg xmlns="http://www.w3.org/2000/svg" xmlns:xlink="http://www.w3.org/1999/xlink" height="800" width="1200" viewBox="-164.17755 -59.12225 1422.8721 354.7335"><defs><linearGradient id="b"><stop offset="0" stop-color="#415ea4"/><stop offset="1" stop-color="#19458c"/></linearGradient><linearGradient id="c"><stop offset="0" stop-color="#fac45a"/><stop offset=".525" stop-color="#f7a909"/><stop offset="1" stop-color="#d49109"/></linearGradient><linearGradient id="a"><stop offset="0" stop-color="#617ec4"/><stop offset="1" stop-color="#244c8d"/></linearGradient><linearGradient y2="144.43" x2="451.911" y1="935.984" x1="451.911" gradientUnits="userSpaceOnUse" id="z" xlink:href="#a"/><linearGradient y2="144.43" x2="451.911" y1="935.984" x1="451.911" gradientUnits="userSpaceOnUse" id="y" xlink:href="#a"/><linearGradient gradientUnits="userSpaceOnUse" y2="299.317" x2="1086.588" y1="257.307" x1="1086.588" id="A" xlink:href="#b"/><linearGradient y2="299.317" x2="1086.588" y1="257.307" x1="1086.588" gradientUnits="userSpaceOnUse" id="B" xlink:href="#b"/><linearGradient y2="299.317" x2="1086.588" y1="257.307" x1="1086.588" gradientUnits="userSpaceOnUse" id="C" xlink:href="#b"/><linearGradient y2="299.317" x2="1086.588" y1="257.307" x1="1086.588" gradientUnits="userSpaceOnUse" id="D" xlink:href="#b"/><linearGradient y2="300.621" x2="1140.436" y1="974.902" x1="480.537" gradientUnits="userSpaceOnUse" id="g" xlink:href="#c"/><linearGradient y2="300.621" x2="1140.436" y1="974.902" x1="480.537" gradientUnits="userSpaceOnUse" id="h" xlink:href="#c"/><linearGradient y2="300.621" x2="1140.436" y1="974.902" x1="480.537" gradientUnits="userSpaceOnUse" id="i" xlink:href="#c"/><linearGradient y2="300.621" x2="1140.436" y1="974.902" x1="480.537" gradientUnits="userSpaceOnUse" id="j" xlink:href="#c"/><linearGradient y2="300.621" x2="1140.436" y1="974.902" x1="480.537" gradientUnits="userSpaceOnUse" id="k" xlink:href="#c"/><linearGradient y2="300.621" x2="1140.436" y1="974.902" x1="480.537" gradientUnits="userSpaceOnUse" id="l" xlink:href="#c"/><linearGradient y2="300.621" x2="1140.436" y1="974.902" x1="480.537" gradientUnits="userSpaceOnUse" id="m" xlink:href="#c"/><linearGradient y2="300.621" x2="1140.436" y1="974.902" x1="480.537" gradientUnits="userSpaceOnUse" id="n" xlink:href="#c"/><linearGradient y2="300.621" x2="1140.436" y1="974.902" x1="480.537" gradientUnits="userSpaceOnUse" id="o" xlink:href="#c"/><linearGradient y2="300.621" x2="1140.436" y1="974.902" x1="480.537" gradientUnits="userSpaceOnUse" id="p" xlink:href="#c"/><linearGradient y2="300.621" x2="1140.436" y1="974.902" x1="480.537" gradientUnits="userSpaceOnUse" id="q" xlink:href="#c"/><linearGradient y2="300.621" x2="1140.436" y1="974.902" x1="480.537" gradientUnits="userSpaceOnUse" id="r" xlink:href="#c"/><linearGradient y2="300.621" x2="1140.436" y1="974.902" x1="480.537" gradientUnits="userSpaceOnUse" id="s" xlink:href="#c"/><linearGradient y2="300.621" x2="1140.436" y1="974.902" x1="480.537" gradientUnits="userSpaceOnUse" id="t" xlink:href="#c"/><linearGradient y2="300.621" x2="1140.436" y1="974.902" x1="480.537" gradientUnits="userSpaceOnUse" id="u" xlink:href="#c"/><linearGradient y2="300.621" x2="1140.436" y1="974.902" x1="480.537" gradientUnits="userSpaceOnUse" id="v" xlink:href="#c"/><linearGradient y2="300.621" x2="1140.436" y1="974.902" x1="480.537" gradientUnits="userSpaceOnUse" id="w" xlink:href="#c"/><linearGradient y2="300.621" x2="1140.436" y1="974.902" x1="480.537" gradientUnits="userSpaceOnUse" id="f" xlink:href="#c"/><clipPath clipPathUnits="userSpaceOnUse" id="x"><path d="M752.129 352.969l38.742-32.539S629.77 125.27 625.137 123.73c-4.637-1.539-559.102 0-559.102 0v548.286s-69.723 323.714 0 323.714h280.332V326.629l60.371-65.059 54.25-6.172 83.614 13.907 207.527 83.664"/></clipPath><clipPath clipPathUnits="userSpaceOnUse" id="e"><path d="M0 1172.06V0h4503.57v1172.06"/></clipPath><filter id="d"><feGaussianBlur stdDeviation="2.218"/></filter></defs><path d="M936.404 63.031c8.713 0 17.866-1.396 25.843-3.528 1.54-.444 3.053-.884 4.486-1.36.879-.296 1.762-.592 2.609-.883V26.935c0-10.239-1.212-18.457-5.735-23.933-4.481-5.438-12.496-8.43-26.208-8.43-6.545 0-12.83 1.373-17.348 2.793-.81.236-1.66.513-2.465.804-.18.056-.328.13-.518.18v5.5c2.54-1.069 5.665-2.132 8.792-2.979a61.31 61.31 0 012.793-.68c2.937-.66 5.767-1.086 8.154-1.086 19.96 0 20.186 8.546 20.44 17.648 0 .675.038 1.378.074 2.169l.148 3.158-3.057-.735a65.023 65.023 0 00-6.65-1.138c-.662-.11-1.25-.148-1.652-.185a72.249 72.249 0 00-7.681-.402h-.073c-6.179 0-13.787.99-19.776 4.444-5.739 3.312-9.998 8.898-9.998 18.236v.037c0 7.644 3.417 12.755 8.454 15.95 5.29 3.381 12.348 4.745 19.368 4.745m0 4.74v-.036c-7.788 0-15.803-1.582-21.903-5.439-6.359-4.047-10.623-10.48-10.623-19.96h-.04v-.037h.04c0-11.396 5.291-18.268 12.348-22.352 6.84-3.894 15.29-5.05 22.13-5.05v-.018h.072v.018c2.905 0 5.698.162 8.122.421.772.07 1.36.125 1.762.18 1.55.185 2.946.407 4.195.606-.185-6.41-.888-12.255-15.701-12.255V3.83c-1.985 0-4.477.365-7.127.957a75.49 75.49 0 00-2.609.662c-4.486 1.211-8.86 2.862-11.21 4.208l-3.533 1.984V-4.846l1.512-.606v-.018a81.57 81.57 0 012.164-.823 58.884 58.884 0 012.646-.865c4.925-1.531 11.654-3.016 18.748-3.016 15.29 0 24.447 3.622 29.844 10.16 5.406 6.508 6.84 15.683 6.84 26.95v33.592l-1.503.55-.041.038v-.037a70.42 70.42 0 01-4.333 1.581c-1.582.477-3.164.958-4.74 1.397-8.349 2.243-17.903 3.714-27.06 3.714M952.58 30.57c-.661-.148-1.286-.254-1.804-.365-3.417-.624-7.46-1.105-9.633-1.105-4.555 0-8.454.846-11.132 2.867-2.539 1.947-4.083 5.073-4.083 9.74h.04v.041h-.04c0 4.042 1.873 6.947 4.518 8.857 2.835 2.02 6.512 2.941 9.892 2.941h.032c1.55 0 3.714-.111 6.142-.48.407-.07.81-.107 1.216-.181 1.577-.296 3.228-.625 4.852-1.069V30.57zm2.978-4.153l1.762.477v28.382l-1.655.513a45.152 45.152 0 01-7.132 1.725c-.48.111-.915.185-1.322.222-2.646.407-5.037.55-6.84.55h-.032c-4.301 0-9.004-1.248-12.644-3.82v-.037c-3.788-2.719-6.47-6.914-6.47-12.68v-.042c0-6.36 2.201-10.693 5.915-13.49 3.607-2.715 8.454-3.858 14.004-3.858 2.358 0 6.729.55 10.475 1.212.814.148 1.549.296 2.062.407.63.148 1.29.296 1.878.44M890.457-3.469h-7.094l-19.919 49.221-2.21 5.402-2.165-5.402-20.108-49.198h-11.909l25.913 64.307h11.432zm-8.713-4.722h15.734l-1.286 3.252-28.049 69.07-.583 1.47h-17.79l-.587-1.507-27.827-69.047-1.286-3.238h22.018l.62 1.471 18.527 45.341 18.346-45.34.583-1.472zm-90.533 69.052h11.834V-3.445h-11.834zm-4.74 2.35V-8.19h21.315v73.792H786.47zM797.13-21v-.019.019c1.58 0 3.01-.661 4.041-1.73a6.127 6.127 0 001.693-4.204h-.038v-.023h.038c0-1.503-.666-2.936-1.693-3.986a5.656 5.656 0 00-4.042-1.711h-.041a5.93 5.93 0 00-4.153 1.73c-1.096 1.049-1.758 2.483-1.758 3.99h.033v.019h-.033c0 1.596.694 3.085 1.758 4.148A5.91 5.91 0 00797.131-21m0 4.726v-.023c-2.946 0-5.592-1.193-7.534-3.121-1.915-1.933-3.126-4.597-3.126-7.497v-.019c0-2.83 1.211-5.461 3.163-7.358a10.7 10.7 0 017.455-3.103h.041c2.942 0 5.55 1.23 7.427 3.145 1.869 1.892 3.016 4.5 3.016 7.293v.023c0 2.905-1.147 5.569-3.016 7.497v-.019a10.244 10.244 0 01-7.427 3.16v.022zM766.913 1.883v-.018h.018c.754 0 1.47 0 2.576.037v-7.229c-5.13.426-9.134 1.809-12.242 3.645-.68.384-1.323.827-1.947 1.285-.643.463-1.193.902-1.707 1.379l-.092.074-3.955 3.565v-8.065h-11.82v64.307h11.82V10.999l.255-.514c1.401-2.78 3.478-4.763 5.956-6.123.481-.273.976-.513 1.453-.717 2.955-1.267 6.34-1.762 9.684-1.762m.018 4.722h-.018v-.018c-2.756 0-5.476.402-7.807 1.415a8.89 8.89 0 00-1.05.5c-1.526.84-2.83 1.997-3.75 3.602v53.498h-21.316v-73.79h21.316v2.774c.185-.125.37-.217.569-.346 4.208-2.484 9.74-4.25 16.926-4.394l2.433-.06V7.118l-2.65-.328a23.67 23.67 0 00-2.17-.166c-.517-.019-1.47-.019-2.483-.019m-83.476 56.426h.023c7.825 0 16.057-1.692 22.416-3.787 1.18-.37 2.336-.81 3.455-1.212.55-.222 1.068-.444 1.544-.661V-31.66h-11.834v29.552l-3.145-1.1c-1.85-.644-3.82-1.212-5.897-1.6a35.16 35.16 0 00-6.54-.62h-.022c-12.279 0-21.339 4.004-27.254 10.252-5.938 6.244-8.824 14.795-8.824 23.873 0 9.079 2.886 17.68 8.824 23.966 5.934 6.322 14.975 10.368 27.254 10.368m.023 4.74h-.023v-.036c-13.726 0-23.91-4.597-30.695-11.798-6.798-7.242-10.105-16.982-10.128-27.24.023-10.253 3.33-19.96 10.128-27.128 6.785-7.15 16.982-11.724 30.695-11.724v-.019h.023c2.604 0 5.069.273 7.423.717 1.174.218 2.312.495 3.417.81v-27.754h21.32v96.745l-1.322.662h-.018c-1.013.48-2.1.994-3.22 1.401-1.1.44-2.349.916-3.727 1.355-6.747 2.21-15.53 4.01-23.873 4.01m7.437-67.928a39.637 39.637 0 016.655 2.002l1.489.606v52.787l-1.582.55a45.57 45.57 0 01-6.576 1.8 39.878 39.878 0 01-7.423.697h-.023c-3.108 0-9.004-.883-14.115-5.142-5.036-4.158-9.337-11.544-9.337-24.41v-.074c0-12.866 4.301-20.238 9.337-24.41 5.11-4.24 11.03-5.146 14.138-5.146 2.604 0 5.069.259 7.437.74m3.404 5.84a34.022 34.022 0 00-4.32-1.211 33.31 33.31 0 00-6.52-.624V3.83c-2.433 0-7.081.698-11.123 4.06-4.116 3.423-7.631 9.634-7.631 20.77v.074c0 11.137 3.515 17.39 7.63 20.765 4.043 3.349 8.677 4.047 11.1 4.047h.023c2.313 0 4.5-.222 6.54-.624a31.945 31.945 0 004.3-1.069V5.684zM612.455 16.66v44.203h11.835V16.66c0-6.835-1.082-12.422-4.574-16.177-3.51-3.765-9.666-5.91-19.886-5.91-6.595 0-12.501 1.738-17.237 3.893v.019a42.86 42.86 0 00-2.65 1.304c-.957.495-1.725.939-2.372 1.341h-.015l-3.588 2.146v-6.721h-11.83v64.307h11.83V6.277l1.142-.703c3.214-1.961 6.433-3.58 9.814-4.704 3.436-1.119 7.038-1.766 10.956-1.766 4.814 0 8.912 1.068 11.908 3.88 2.956 2.793 4.667 7.15 4.667 13.675m-4.74 46.553V16.659c0-5.11-1.157-8.324-3.182-10.234-1.984-1.86-4.981-2.576-8.653-2.576-3.386 0-6.512.55-9.467 1.526-2.632.86-5.184 2.076-7.7 3.547v56.68h-21.32V-8.19h21.32v3.27c.624-.31 1.267-.62 1.928-.916v.02c5.272-2.41 11.853-4.357 19.188-4.357 11.673 0 18.93 2.7 23.341 7.44 4.468 4.797 5.864 11.433 5.864 19.392v48.943h-21.32v-2.39zm-105.167-.18c8.602 0 17.791-1.397 25.732-3.53 1.54-.443 3.052-.883 4.444-1.359.865-.259 1.73-.592 2.576-.883V26.935c0-10.257-1.16-18.457-5.642-23.933-4.449-5.438-12.408-8.43-26.116-8.43-6.562 0-12.921 1.373-17.514 2.793-.832.236-1.655.513-2.483.804l-.514.18v5.537c2.572-1.083 5.767-2.15 8.95-3.016a72.538 72.538 0 012.83-.68c2.922-.66 5.771-1.086 8.125-1.086h.014c19.67 0 20.016 8.292 20.386 17.245.014.773.055 1.559.125 2.535l.203 3.121-3.066-.66a71.186 71.186 0 00-6.747-1.139c-.717-.11-1.267-.148-1.651-.185a70.353 70.353 0 00-7.631-.402h-.074c-6.174 0-13.763.99-19.757 4.444-5.716 3.312-9.999 8.898-10.017 18.236h.018v.037h-.018c0 7.644 3.367 12.755 8.38 15.95 5.258 3.381 12.352 4.745 19.447 4.745m0 4.74v-.036c-7.904 0-15.9-1.582-21.982-5.439-6.322-4.047-10.549-10.48-10.549-19.96H470v-.037h.018c0-11.396 5.291-18.268 12.372-22.352 6.816-3.894 15.27-5.05 22.106-5.05v-.018h.074v.018c2.941 0 5.66.162 8.089.421.79.07 1.36.125 1.743.18 1.526.185 2.923.407 4.195.63-.278-6.434-.81-12.28-15.646-12.28h-.014V3.83c-1.984 0-4.486.365-7.117.957a91.76 91.76 0 00-2.627.662c-4.505 1.211-8.93 2.886-11.414 4.227l-3.492 1.891V-4.846l1.494-.606h.014l-.014-.018c.62-.24 1.36-.518 2.183-.823a64.236 64.236 0 012.682-.865c4.981-1.531 11.835-3.016 18.897-3.016 15.29 0 24.405 3.622 29.774 10.184 5.328 6.507 6.73 15.66 6.73 26.925V60.53l-1.527.55c-1.323.556-2.78 1.07-4.324 1.583-1.522.476-3.103.957-4.703 1.396-8.288 2.243-17.94 3.714-26.944 3.714m16.191-37.202c-.68-.148-1.286-.254-1.817-.365-3.418-.624-7.465-1.105-9.634-1.105-4.537 0-8.43.846-11.118 2.867-2.553 1.947-4.06 5.073-4.079 9.74h.019v.041h-.019c.019 4.042 1.818 6.947 4.468 8.857h-.019c2.775 2.02 6.47 2.941 9.943 2.941h.033c1.563 0 3.714-.11 6.16-.48.402-.07.81-.107 1.193-.181 1.582-.296 3.233-.625 4.87-1.069V30.57zm2.941-4.153h.019l1.762.477v28.382l-1.633.513c-2.446.81-4.87 1.36-7.168 1.725a9.277 9.277 0 01-1.304.222h-.019c-2.613.407-5.018.55-6.821.55h-.033c-4.393 0-9.083-1.248-12.704-3.857-3.783-2.719-6.414-6.914-6.414-12.68v-.042c0-6.36 2.243-10.693 5.938-13.49 3.584-2.715 8.458-3.858 13.985-3.858 2.373 0 6.748.55 10.475 1.212.851.148 1.53.296 2.063.407.661.148 1.267.296 1.854.44M433.5-1.3v62.161h12.83v-86.015h-13.713l-32.11 66.31-2.058 4.3-2.169-4.227-33.871-66.383h-14.54v86.015h7.903v-71.424l4.468 8.787 31.906 62.637h6.34l30.528-63.169 4.486-9.319zm-4.745 64.51V9.052L402.09 64.244l-.647 1.36h-12.2l-.662-1.323-28.063-55.117v56.439h-17.37v-95.495h22.165l.657 1.285 32.368 63.442 30.676-63.386.643-1.341h21.413v95.495h-22.315zm507.65 2.17c-14.814 0-30.177-5.915-30.177-23.045 0-20.733 19.114-25.09 32.16-25.09 7.1 0 13.2.99 16.584 1.786-.407-8.676 1.175-17.551-18.165-17.551-6.503 0-17.565 3.542-22.088 6.1V-3.264c4.333-1.762 13.194-4.542 22.68-4.542 29.001 0 34.329 13.236 34.329 34.741v31.939c-9.666 3.75-22.902 6.507-35.324 6.507m18.568-36.684c-3.755-.99-10.664-1.984-13.828-1.984-10.068 0-17.569 3.968-17.569 14.994 0 9.892 9.083 14.23 16.765 14.23 3.38 0 9.078-.592 14.632-2.39zM881.744-5.817h12.247l-28.017 69.029h-14.586l-27.832-69.03H840.5l20.733 50.688zm-92.92 0h16.575v69.033h-16.575zm8.306-12.83c-4.56 0-8.306-3.75-8.306-8.287 0-4.342 3.746-8.088 8.306-8.088 4.523 0 8.089 3.746 8.089 8.088 0 4.537-3.566 8.288-8.089 8.288m-30.2 22.883c-6.118 0-12.223 1.78-14.993 7.293v51.682h-16.58v-69.03h16.58v5.125c4.153-3.746 10.452-6.91 19.942-7.113V4.436c-1.6-.199-3.182-.199-4.948-.199m-83.454 61.144c-26.028 0-38.473-17.348-38.473-36.684s12.445-36.503 38.473-36.503c4.94 0 9.259.995 13.208 2.377v-28.604h16.58v92.907c-6.507 3.163-18.54 6.507-29.788 6.507m13.208-61.347c-3.95-1.564-8.269-2.553-13.208-2.553-5.517 0-21.103 3.158-21.103 27.216 0 24.077 15.586 27.24 21.103 27.24 4.94 0 9.259-.994 13.208-2.39zm-86.603 59.178V16.659c0-11.636-5.73-15.178-14.202-15.178-7.298 0-13.421 2.368-19.54 6.1v55.63h-16.575V-5.816h16.575v4.92c5.536-3.343 13.824-6.909 23.49-6.909 21.888 0 26.832 9.67 26.832 24.465v46.553zM502.548 65.38c-14.98 0-30.177-5.915-30.177-23.045 0-20.733 19.152-25.09 32.16-25.09 7.095 0 13.02.99 16.562 1.786-.569-8.676 1.193-17.551-18.143-17.551-6.502 0-17.57 3.542-22.291 6.1V-3.264c4.338-1.762 13.416-4.542 22.883-4.542 29.002 0 34.13 13.236 34.13 34.741v31.939c-9.466 3.75-22.882 6.507-35.124 6.507m18.545-36.684c-3.732-.99-10.641-1.984-13.805-1.984-10.05 0-17.55 3.968-17.55 14.994 0 9.892 8.874 14.23 16.76 14.23 3.362 0 9.082-.592 14.595-2.39zm-89.965 34.515v-64.51l-31.17 64.51h-9.264L358.144-.693v63.905h-12.63v-90.733h18.347l34.533 67.65 32.734-67.65h17.57v90.733zM338.018-40.54l-21.505.19zM90.4-82.807C74.15-64.5 64.735-42.6 62.53-18.217 60.374 5.612 64.201 36.44 81.363 54.527c31.6 33.303 90.318-3.737 118.017-23.864 5.494-3.992 9.301-10.288 14.761-14.254-29.225 21.236-84.556 55.75-118.017 23.864C78.788 23.755 76.258-6.983 77.09-29.331c.942-25.299 11.388-48.936 28.072-67.73-4.518 5.088-10.228 9.146-14.762 14.254m211.86 23.359c-.962 1.798-1.408 2.888-.8 3.942.658 1.14 4.187 6.704 4.187 6.704s3.453 5.61 4.188 6.702c.683 1.007 1.857 1.085 3.897 1.008.96-1.797 1.404-2.887.796-3.94-.656-1.14-4.188-6.703-4.188-6.703s-3.452-5.613-4.187-6.703c-.682-1.008-1.857-1.086-3.893-1.01m-.002 0L313.73-41.09m-11.472-18.356L313.73-41.09m-9.763 24.79c1.993-.045 3.135-.192 3.74-1.213.653-1.11 3.69-6.788 3.69-6.788s3.114-5.636 3.69-6.787c.529-1.064.03-2.1-1.016-3.799-1.989.047-3.131.193-3.735 1.214-.654 1.109-3.69 6.788-3.69 6.788s-3.115 5.636-3.69 6.789c-.53 1.061-.031 2.1 1.01 3.796m.003 0l10.104-18.586M303.97-16.3l10.104-18.586m15.093 18.246c.964-1.798 1.407-2.887.8-3.942-.657-1.14-4.187-6.701-4.187-6.701s-3.452-5.61-4.188-6.7c-.68-1.006-1.855-1.086-3.894-1.008-.96 1.796-1.404 2.887-.796 3.94.656 1.14 4.187 6.701 4.187 6.701s3.452 5.61 4.188 6.702c.681 1.004 1.855 1.084 3.89 1.008m.002-.002L317.7-34.992m11.47 18.35l-11.47-18.35m23.202-3.381c-1.029-1.754-1.727-2.699-2.938-2.73-1.312-.032-7.879.081-7.879.081s-6.57.021-7.883.081c-1.21.057-1.886 1.016-2.88 2.791 1.03 1.75 1.725 2.695 2.939 2.727 1.312.033 7.879-.082 7.879-.082s6.57-.02 7.883-.081c1.209-.055 1.886-1.015 2.88-2.787m0-.001l-21.58.222m21.58-.222l-21.58.222m8.15-21.645c-1.995.045-3.14.19-3.745 1.213-.656 1.108-3.7 6.792-3.7 6.792S316.906-46.15 316.33-45c-.53 1.066-.033 2.104 1.013 3.805 1.993-.046 3.137-.19 3.743-1.215.656-1.109 3.697-6.792 3.697-6.792s3.123-5.64 3.7-6.793c.53-1.065.031-2.103-1.01-3.802m-.002 0l-10.13 18.601m10.13-18.601l-10.13 18.601m-85.708-83.787c-.754-4.86-3.565-5.451-6.24-1.312L193.61-77.042c-2.67 4.122-8.83 6.874-13.69 6.088l-57.872-9.32c-4.871-.79-6.299 1.697-3.185 5.51L155.88-29.31c3.103 3.822 3.818 10.516 1.57 14.906l-26.753 52.157c-2.241 4.391-.321 6.511 4.257 4.736l54.675-21.165c4.59-1.769 11.184-.375 14.662 3.104l41.33 41.57c3.473 3.503 6.091 2.344 5.817-2.575L248.206 4.88c-.27-4.904 3.085-10.75 7.486-12.973l52.316-26.465c4.393-2.232 4.089-5.077-.677-6.347L250.67-55.91c-4.762-1.26-9.27-6.284-10.027-11.142zm0 0c-.754-4.86-3.565-5.451-6.24-1.312L193.61-77.042c-2.67 4.122-8.83 6.874-13.69 6.088l-57.872-9.32c-4.871-.79-6.299 1.697-3.185 5.51L155.88-29.31c3.103 3.822 3.818 10.516 1.57 14.906l-26.753 52.157c-2.241 4.391-.321 6.511 4.257 4.736l54.675-21.165c4.59-1.769 11.184-.375 14.662 3.104l41.33 41.57c3.473 3.503 6.091 2.344 5.817-2.575L248.206 4.88c-.27-4.904 3.085-10.75 7.486-12.973l52.316-26.465c4.393-2.232 4.089-5.077-.677-6.347L250.67-55.91c-4.762-1.26-9.27-6.284-10.027-11.142l-9.01-57.93" fill="#8e8f93" filter="url(#d)" transform="translate(29.226 148.759)"/><g clip-path="url(#e)" fill="url(#f)" transform="matrix(.2096 0 0 -.2096 65.37 243.045)"><path d="M922.363 1069.2c-3.601 23.19-17.011 26.01-29.777 6.26L740.953 840.469c-12.738-19.664-42.125-32.793-65.312-29.047l-276.114 44.469c-23.242 3.769-30.054-8.098-15.195-26.289l176.606-216.864c14.804-18.238 18.214-50.172 7.492-71.117L440.785 292.773c-10.691-20.949-1.531-31.066 20.313-22.597L721.957 371.16c21.902 8.438 53.359 1.789 69.953-14.812l197.192-198.336c16.568-16.711 29.058-11.18 27.748 12.289l-15.42 279.308c-1.29 23.399 14.72 51.289 35.72 61.895l249.6 126.266c20.96 10.648 19.51 24.222-3.23 30.281l-270.33 71.597c-22.717 6.008-44.229 29.981-47.835 53.161L922.363 1069.2" fill="url(#g)"/><path d="M922.363 1069.2c-3.601 23.19-17.011 26.01-29.777 6.26L740.953 840.469c-12.738-19.664-42.125-32.793-65.312-29.047l-276.114 44.469c-23.242 3.769-30.054-8.098-15.195-26.289l176.606-216.864c14.804-18.238 18.214-50.172 7.492-71.117L440.785 292.773c-10.691-20.949-1.531-31.066 20.313-22.597L721.957 371.16c21.902 8.438 53.359 1.789 69.953-14.812l197.192-198.336c16.568-16.711 29.058-11.18 27.748 12.289l-15.42 279.308c-1.29 23.399 14.72 51.289 35.72 61.895l249.6 126.266c20.96 10.648 19.51 24.222-3.23 30.281l-270.33 71.597c-22.717 6.008-44.229 29.981-47.835 53.161z" fill="url(#h)" stroke="#fab217" stroke-width="3.916"/><path d="M1379.61 758.195l-48.33-88.75" fill="url(#i)"/><path d="M1379.61 758.195l-48.33-88.75" fill="url(#j)"/><path d="M1379.62 758.191c-9.52-.211-14.98-.902-17.87-5.785-3.13-5.289-17.65-32.406-17.65-32.406s-14.9-26.914-17.64-32.406c-2.53-5.086-.16-10.039 4.83-18.153 9.51.219 14.97.911 17.86 5.797 3.13 5.289 17.64 32.407 17.64 32.407s14.9 26.91 17.65 32.41c2.53 5.078.15 10.031-4.82 18.136" fill="url(#k)"/><path d="M1443.69 655.984l-102.96-1.062" fill="url(#l)"/><path d="M1443.69 655.984l-102.96-1.062" fill="url(#m)"/><path d="M1443.69 655.977c-4.91 8.367-8.24 12.875-14.02 13.027-6.26.148-37.59-.391-37.59-.391s-31.35-.101-37.61-.386c-5.77-.274-9-4.848-13.74-13.317 4.91-8.351 8.23-12.859 14.02-13.008 6.26-.16 37.59.391 37.59.391s31.35.098 37.61.387c5.77.261 9 4.843 13.74 13.297" fill="url(#n)"/><path d="M1387.71 552.293l-54.72 87.551" fill="url(#o)"/><path d="M1387.71 552.293l-54.72 87.551" fill="url(#p)"/><path d="M1387.7 552.285c4.6 8.582 6.71 13.777 3.82 18.809-3.14 5.437-19.98 31.972-19.98 31.972s-16.47 26.762-19.98 31.965c-3.25 4.801-8.85 5.18-18.58 4.809-4.58-8.57-6.7-13.774-3.8-18.797 3.13-5.438 19.98-31.973 19.98-31.973s16.47-26.765 19.98-31.972c3.25-4.793 8.85-5.176 18.56-4.813" fill="url(#q)"/><path d="M1267.48 550.664l48.21 88.676" fill="url(#r)"/><path d="M1267.48 550.664l48.21 88.676" fill="url(#s)"/><path d="M1267.47 550.664c9.51.215 14.96.918 17.85 5.789 3.11 5.293 17.6 32.383 17.6 32.383s14.86 26.894 17.61 32.383c2.52 5.078.14 10.023-4.85 18.125-9.49-.223-14.94-.918-17.82-5.793-3.12-5.289-17.61-32.383-17.61-32.383s-14.86-26.891-17.6-32.391c-2.53-5.066-.15-10.019 4.82-18.113" fill="url(#t)"/><path d="M1259.32 756.523l54.73-87.578" fill="url(#u)"/><path d="M1259.32 756.523l54.73-87.578" fill="url(#v)"/><path d="M1259.33 756.527c-4.59-8.578-6.72-13.777-3.82-18.808 3.14-5.442 19.98-31.985 19.98-31.985s16.47-26.769 19.98-31.976c3.26-4.805 8.86-5.176 18.59-4.809 4.58 8.574 6.7 13.774 3.8 18.801-3.13 5.438-19.98 31.98-19.98 31.98s-16.47 26.778-19.98 31.977c-3.25 4.813-8.86 5.184-18.57 4.82" fill="url(#w)"/></g><g clip-path="url(#x)" fill="url(#y)" transform="matrix(.2096 0 0 -.2096 65.37 243.045)"><path d="M248.527 867.977c-77.531-87.344-122.453-191.84-132.976-308.165-10.281-113.691 7.976-260.781 89.859-347.07 150.766-158.89 430.914 17.832 563.067 113.86 26.214 19.043 44.378 49.082 70.429 68.007-139.437-101.32-403.426-265.988-563.07-113.859-82.711 78.809-94.781 225.461-90.813 332.086 4.493 120.703 54.332 233.476 133.934 323.148-21.555-24.277-48.801-43.64-70.43-68.007" fill="url(#z)"/></g><g transform="translate(-728.398 -174.159) scale(1.28913)" fill="url(#A)"><path d="M848.226 215.298l-16.682.147z" fill="url(#B)" fill-rule="evenodd"/><path d="M1312.404 297.462c-11.491 0-23.409-4.589-23.409-17.877 0-16.082 14.828-19.462 24.948-19.462 5.507 0 10.239.768 12.865 1.385-.316-6.73.91-13.614-14.092-13.614-5.044 0-13.625 2.748-17.134 4.731v-8.412c3.361-1.367 10.235-3.523 17.593-3.523 22.497 0 26.63 10.267 26.63 26.95v24.774c-7.498 2.91-17.765 5.048-27.401 5.048m14.404-28.456c-2.913-.768-8.273-1.54-10.727-1.54-7.81 0-13.629 3.079-13.629 11.632 0 7.673 7.046 11.038 13.005 11.038 2.622 0 7.042-.459 11.35-1.854zm-56.805-26.773h9.5l-21.733 53.546h-11.315l-21.59-53.546h13.145l16.083 39.318zm-72.08 0h12.858v53.55h-12.857zm6.444-9.952c-3.538 0-6.443-2.91-6.443-6.429 0-3.369 2.905-6.274 6.443-6.274 3.508 0 6.274 2.905 6.274 6.274 0 3.52-2.766 6.429-6.274 6.429m-23.427 17.75c-4.746 0-9.481 1.382-11.63 5.658v40.09h-12.861v-53.546h12.86v3.974c3.222-2.905 8.108-5.36 15.47-5.517v9.496c-1.241-.154-2.468-.154-3.839-.154m-64.736 47.43c-20.19 0-29.844-13.457-29.844-28.456 0-15 9.654-28.316 29.844-28.316 3.832 0 7.182.771 10.246 1.844v-22.189h12.861v72.07c-5.047 2.453-14.382 5.047-23.107 5.047m10.246-47.588c-3.064-1.213-6.414-1.98-10.246-1.98-4.28 0-16.37 2.45-16.37 21.112 0 18.676 12.09 21.13 16.37 21.13 3.832 0 7.182-.771 10.246-1.854zm-67.18 45.905v-36.111c0-9.026-4.444-11.774-11.016-11.774-5.661 0-10.411 1.836-15.157 4.731v43.154h-12.858v-53.546h12.858v3.817c4.294-2.594 10.723-5.36 18.22-5.36 16.98 0 20.815 7.501 20.815 18.978v36.111zm-83.415 1.683c-11.62 0-23.409-4.589-23.409-17.877 0-16.082 14.856-19.462 24.948-19.462 5.503 0 10.098.768 12.846 1.385-.44-6.73.926-13.614-14.073-13.614-5.044 0-13.63 2.748-17.292 4.731v-8.412c3.365-1.367 10.407-3.523 17.75-3.523 22.498 0 26.476 10.267 26.476 26.95v24.774c-7.343 2.91-17.75 5.048-27.246 5.048m14.385-28.456c-2.895-.768-8.254-1.54-10.708-1.54-7.796 0-13.615 3.079-13.615 11.632 0 7.673 6.885 11.038 13.001 11.038 2.608 0 7.046-.459 11.322-1.854zm-69.787 26.773v-50.041l-24.18 50.041h-7.185l-25.249-49.572v49.572h-9.797v-70.382h14.231l26.788 52.477 25.392-52.478h13.629v70.383z" fill="url(#C)" fill-rule="evenodd"/><path d="M1312.404 295.64c6.759 0 13.858-1.084 20.047-2.738a91.885 91.885 0 003.48-1.055c.681-.23 1.366-.459 2.023-.685V267.64c0-7.943-.94-14.318-4.449-18.565-3.476-4.219-9.693-6.54-20.33-6.54-5.076 0-9.952 1.065-13.457 2.167a32.5 32.5 0 00-1.912.624c-.14.043-.254.1-.401.14v4.265c1.969-.828 4.394-1.653 6.82-2.31a47.55 47.55 0 012.166-.527c2.278-.513 4.474-.843 6.325-.843 15.483 0 15.66 6.63 15.857 13.69 0 .523.029 1.069.057 1.682l.114 2.45-2.371-.57a50.441 50.441 0 00-5.159-.883c-.513-.086-.968-.114-1.28-.143a56.045 56.045 0 00-5.96-.312h-.056c-4.793 0-10.695.767-15.34 3.447-4.452 2.569-7.757 6.903-7.757 14.146v.028c0 5.93 2.652 9.895 6.558 12.374 4.104 2.622 9.579 3.68 15.025 3.68m0 3.678v-.03c-6.042 0-12.259-1.226-16.99-4.218-4.933-3.139-8.241-8.13-8.241-15.484h-.032v-.028h.032c0-8.84 4.104-14.17 9.579-17.339 5.305-3.02 11.86-3.917 17.166-3.917v-.014h.057v.014c2.253 0 4.42.125 6.3.326a33.2 33.2 0 011.366.14c1.202.144 2.285.316 3.254.47-.143-4.972-.689-9.507-12.18-9.507v-.014c-1.539 0-3.472.283-5.528.743-.599.14-1.284.312-2.023.513-3.48.94-6.874 2.22-8.696 3.264l-2.741 1.54v-12.792l1.173-.47v-.014a66.604 66.604 0 011.679-.639c.57-.2 1.252-.43 2.052-.67 3.82-1.188 9.04-2.34 14.544-2.34 11.86 0 18.963 2.81 23.15 7.882 4.194 5.047 5.306 12.165 5.306 20.904v26.06l-1.166.427-.032.028v-.028c-1.08.43-2.221.857-3.362 1.226-1.227.37-2.454.743-3.677 1.084-6.475 1.74-13.887 2.88-20.99 2.88m12.549-28.857c-.513-.115-.998-.197-1.4-.284-2.65-.484-5.786-.857-7.472-.857-3.534 0-6.558.657-8.635 2.224-1.97 1.51-3.168 3.936-3.168 7.556h.032v.032h-.032c0 3.135 1.453 5.388 3.505 6.87 2.2 1.568 5.051 2.282 7.674 2.282h.025c1.201 0 2.88-.087 4.764-.374.316-.053.628-.082.943-.14 1.224-.23 2.504-.484 3.764-.828v-16.481zm2.31-3.222l1.367.37v22.017l-1.284.398a35.025 35.025 0 01-5.532 1.339 7.65 7.65 0 01-1.026.172 35.73 35.73 0 01-5.306.427h-.025c-3.337 0-6.985-.969-9.808-2.964v-.028c-2.939-2.11-5.02-5.364-5.02-9.837v-.032c0-4.933 1.708-8.295 4.589-10.465 2.798-2.106 6.558-2.992 10.863-2.992 1.83 0 5.22.427 8.126.94.631.115 1.201.23 1.6.315.488.115 1 .23 1.456.341m-50.5-23.182h-5.504l-15.451 38.182-1.715 4.19-1.68-4.19-15.598-38.164h-9.237l20.1 49.884h8.869zm-6.76-3.663h12.205l-.997 2.522-21.758 53.58-.453 1.14h-13.8l-.455-1.17-21.586-53.56-.997-2.512h17.079l.481 1.141 14.372 35.172 14.231-35.172.452-1.14zm-70.228 53.565h9.18v-49.884h-9.18zm-3.677 1.822v-55.386h16.534v57.241h-16.534zm8.269-65.324v-.015.015a4.343 4.343 0 003.135-1.342 4.753 4.753 0 001.313-3.26h-.029v-.019h.03c0-1.166-.517-2.278-1.314-3.092a4.388 4.388 0 00-3.135-1.328h-.032a4.6 4.6 0 00-3.222 1.342c-.85.814-1.363 1.927-1.363 3.096h.025v.015h-.025c0 1.237.538 2.392 1.363 3.218a4.584 4.584 0 003.254 1.37m0 3.666v-.018a8.252 8.252 0 01-5.844-2.421c-1.485-1.5-2.425-3.566-2.425-5.815v-.015c0-2.195.94-4.237 2.454-5.708a8.3 8.3 0 015.783-2.407h.032c2.281 0 4.305.955 5.761 2.44a8.076 8.076 0 012.34 5.657v.018a8.35 8.35 0 01-2.34 5.815v-.014a7.947 7.947 0 01-5.761 2.45v.018zm-23.44 14.085v-.015h.013c.585 0 1.141 0 1.999.03v-5.608c-3.979.33-7.086 1.403-9.496 2.827-.528.298-1.027.642-1.51.997-.5.359-.926.7-1.325 1.07l-.072.057-3.067 2.766v-6.257h-9.17v49.884h9.17v-38.68l.197-.398c1.087-2.157 2.698-3.696 4.621-4.75a11.28 11.28 0 011.127-.556c2.292-.983 4.918-1.367 7.512-1.367m.014 3.663h-.014v-.015c-2.138 0-4.248.312-6.056 1.098a6.917 6.917 0 00-.814.387c-1.184.653-2.196 1.55-2.91 2.795v41.5h-16.534v-57.241h16.534v2.152c.144-.097.287-.169.442-.27 3.264-1.926 7.555-3.296 13.13-3.407l1.887-.047v13.445l-2.056-.254c-.6-.072-1.155-.115-1.682-.129-.402-.014-1.141-.014-1.927-.014m-64.754 43.77h.018c6.07 0 12.456-1.313 17.389-2.938.914-.287 1.811-.627 2.68-.94a29.33 29.33 0 001.198-.513v-69.062h-9.18v22.924l-2.44-.854a31.7 31.7 0 00-4.574-1.241 27.274 27.274 0 00-5.073-.481h-.018c-9.525 0-16.553 3.107-21.141 7.953-4.606 4.844-6.845 11.477-6.845 18.519 0 7.042 2.239 13.715 6.845 18.59 4.603 4.904 11.616 8.043 21.14 8.043m.019 3.678h-.018v-.029c-10.648 0-18.547-3.566-23.81-9.152-5.274-5.618-7.839-13.173-7.857-21.13.018-7.953 2.583-15.484 7.857-21.044 5.263-5.546 13.173-9.094 23.81-9.094v-.015h.018c2.02 0 3.932.212 5.758.556.911.169 1.794.384 2.651.628v-21.528h16.538v75.046l-1.026.513h-.014c-.785.373-1.628.771-2.497 1.087-.853.34-1.822.71-2.891 1.051-5.234 1.715-12.047 3.11-18.519 3.11m5.769-52.692c1.844.384 3.555.91 5.162 1.553l1.156.47v40.948l-1.227.426a35.35 35.35 0 01-5.102 1.396 30.935 30.935 0 01-5.758.542h-.018c-2.41 0-6.984-.686-10.949-3.99-3.906-3.225-7.243-8.954-7.243-18.934v-.058c0-9.98 3.337-15.699 7.243-18.934 3.965-3.29 8.556-3.993 10.967-3.993 2.02 0 3.932.2 5.769.574m2.64 4.53a26.39 26.39 0 00-3.35-.94 25.84 25.84 0 00-5.059-.484v-.014c-1.887 0-5.492.542-8.628 3.15-3.192 2.655-5.919 7.473-5.919 16.111v.058c0 8.638 2.727 13.489 5.92 16.107 3.135 2.598 6.73 3.14 8.61 3.14h.017c1.794 0 3.49-.173 5.073-.485a24.78 24.78 0 003.336-.829v-35.813zm-63.502 8.514v34.289h9.18v-34.29c0-5.302-.839-9.635-3.547-12.548-2.723-2.92-7.498-4.585-15.427-4.585-5.115 0-9.697 1.349-13.37 3.02v.015c-.732.326-1.414.67-2.056 1.012a26.68 26.68 0 00-1.84 1.04h-.011l-2.784 1.665v-5.213h-9.177v49.884h9.177v-42.343l.886-.545c2.493-1.522 4.99-2.777 7.613-3.649 2.665-.868 5.46-1.37 8.498-1.37 3.735 0 6.914.828 9.238 3.01 2.293 2.166 3.62 5.546 3.62 10.608m-3.677 36.111v-36.111c0-3.964-.897-6.458-2.468-7.94-1.54-1.441-3.864-1.998-6.713-1.998-2.626 0-5.05.427-7.343 1.184-2.041.668-4.022 1.611-5.973 2.752v43.968h-16.538v-57.241h16.537v2.536c.485-.24.984-.481 1.497-.71v.014c4.09-1.87 9.194-3.38 14.884-3.38 9.055 0 14.684 2.095 18.106 5.773 3.466 3.72 4.55 8.868 4.55 15.042v37.966h-16.539v-1.855zm-81.58-.14c6.673 0 13.801-1.083 19.961-2.737 1.195-.344 2.368-.685 3.448-1.054.67-.201 1.342-.46 1.998-.686V267.64c0-7.957-.9-14.317-4.377-18.565-3.45-4.219-9.625-6.54-20.258-6.54-5.09 0-10.024 1.065-13.586 2.167-.646.183-1.284.398-1.927.624l-.398.14v4.294c1.995-.84 4.474-1.668 6.942-2.339a56.25 56.25 0 012.196-.527c2.267-.513 4.477-.843 6.303-.843h.01c15.258 0 15.527 6.432 15.814 13.377.011.6.043 1.21.097 1.966l.158 2.422-2.379-.513a55.221 55.221 0 00-5.234-.883c-.556-.086-.983-.114-1.28-.143a54.575 54.575 0 00-5.92-.312h-.058c-4.788 0-10.676.767-15.325 3.447-4.434 2.569-7.756 6.903-7.77 14.146h.014v.029h-.014c0 5.93 2.611 9.894 6.5 12.373 4.08 2.622 9.582 3.68 15.085 3.68m0 3.678v-.029c-6.13 0-12.333-1.227-17.05-4.219-4.905-3.139-8.184-8.13-8.184-15.483h-.014v-.03h.014c0-8.839 4.104-14.17 9.597-17.338 5.288-3.02 11.846-3.917 17.148-3.917v-.014h.057v.014c2.282 0 4.391.126 6.275.326a27.48 27.48 0 011.352.14c1.184.144 2.268.316 3.254.488-.215-4.99-.628-9.525-12.136-9.525h-.011v-.014c-1.54 0-3.48.283-5.521.743-.6.14-1.281.312-2.038.513-3.494.94-6.927 2.238-8.854 3.279l-2.708 1.467v-12.733l1.158-.47h.011l-.01-.014c.48-.187 1.054-.402 1.693-.639.584-.2 1.27-.43 2.08-.67 3.864-1.188 9.18-2.34 14.659-2.34 11.86 0 18.93 2.81 23.096 7.9 4.133 5.047 5.22 12.147 5.22 20.886v26.06l-1.184.427c-1.026.43-2.156.828-3.354 1.227-1.18.369-2.408.742-3.649 1.083-6.429 1.74-13.916 2.88-20.9 2.88m12.56-28.857c-.528-.115-.998-.197-1.41-.283-2.652-.485-5.79-.858-7.473-.858-3.52 0-6.54.657-8.625 2.224-1.98 1.51-3.15 3.936-3.164 7.556h.015v.032h-.015c.015 3.135 1.41 5.388 3.466 6.87h-.015c2.153 1.568 5.02 2.282 7.713 2.282h.026c1.212 0 2.88-.087 4.778-.374.312-.053.628-.082.926-.14 1.227-.229 2.507-.484 3.777-.828v-16.481zm2.28-3.222h.015l1.367.37v22.016l-1.266.398a35.439 35.439 0 01-5.561 1.339c-.359.086-.7.143-1.012.172h-.014a35.308 35.308 0 01-5.291.427h-.025c-3.409 0-7.047-.969-9.856-2.992-2.934-2.11-4.975-5.364-4.975-9.837v-.032c0-4.933 1.74-8.295 4.606-10.465 2.78-2.106 6.561-2.992 10.849-2.992 1.84 0 5.234.427 8.125.94.66.115 1.188.23 1.6.316.513.114.983.23 1.439.34m-68.403-21.5v48.22h9.952v-66.724h-10.637L896.7 278.671l-1.596 3.336-1.683-3.279-26.275-51.495h-11.279v66.724h6.131v-55.405l3.466 6.816 24.75 48.589h4.918l23.681-49.001 3.48-7.23zm-3.68 50.042v-42.013l-20.686 42.813-.502 1.055h-9.465l-.513-1.026-21.769-42.756v43.782h-13.474v-74.077h17.194l.51.996 25.109 49.214 23.795-49.17.499-1.04h16.611v74.076h-17.31z" fill="url(#D)"/></g></svg>