<svg xmlns="http://www.w3.org/2000/svg" height="800" width="1200" viewBox="-37.26015 -39.28875 322.9213 235.7325"><path d="M245.75 115.296c0 .19-.16.351-.359.351h-.16a.355.355 0 01-.351-.35v-2.98h-1.68v2.98c0 .19-.17.35-.37.35h-.149a.355.355 0 01-.351-.35v-2.98h-1.26a.32.32 0 01-.33-.33v-.17c0-.2.15-.32.33-.32h4.41c.17 0 .29.061.35.16l.83 1.25.83-1.25c.07-.09.17-.16.35-.16h.561v3.83c0 .18-.17.35-.37.35l-.05-.029h-.16a.355.355 0 01-.351-.35v-2.5l-.55.84c-.06.08-.17.12-.27.12h-.061c-.1 0-.22-.04-.279-.12l-.561-.84v2.498zm-5.9 27.9v.81c0 1.78-1.351 3.08-3.221 3.08H212.3c-1.77 0-3.09-1.33-3.09-3.08v-30.52c0-1.76 1.37-3.08 3.15-3.08l.01.03h23.25c1.87 0 3.23 1.29 3.23 3.07v.81c0 1.78-1.36 3.07-3.23 3.07h-18.91v7.99h14.59c1.87 0 3.23 1.31 3.23 3.09v.8c0 1.79-1.36 3.08-3.23 3.08h-14.59v7.78h19.92c1.88 0 3.22 1.31 3.22 3.07z" fill="#73BA25"/><path d="M217.76 15.956c7.69.27 13.721 6.75 13.46 14.43-.14 3.72-1.699 7.16-4.42 9.7-2.72 2.55-6.26 3.87-10 3.74-7.68-.28-13.699-6.75-13.449-14.43.13-3.72 1.689-7.17 4.42-9.71a13.825 13.825 0 019.989-3.73zm9.81 14.14c.18-5.47-4.101-10.07-9.57-10.26-2.649-.1-5.17.84-7.1 2.65a9.788 9.788 0 00-3.141 6.9c-.18 5.47 4.101 10.07 9.561 10.27 2.66.08 5.18-.86 7.12-2.66a9.818 9.818 0 003.13-6.9z" fill="#FFF"/><path d="M218 19.836c5.47.19 9.75 4.79 9.57 10.26a9.818 9.818 0 01-3.13 6.9 9.943 9.943 0 01-7.12 2.66c-5.46-.2-9.74-4.8-9.561-10.27.08-2.65 1.21-5.1 3.141-6.9a9.762 9.762 0 017.1-2.65zm6.02 7.91c0-1.63-1.971-2.94-4.4-2.94-2.429 0-4.39 1.31-4.39 2.94 0 1.61 1.96 2.93 4.39 2.93 2.43 0 4.4-1.32 4.4-2.93z" fill="#73BA25"/><path d="M219.62 24.806c2.43 0 4.4 1.31 4.4 2.94 0 1.61-1.971 2.93-4.4 2.93-2.429 0-4.39-1.32-4.39-2.93 0-1.63 1.96-2.94 4.39-2.94z" fill="#FFF"/><path d="M202.8 132.986v4.89c0 5.601-3.34 9.21-8.55 9.21h-19.87c-1.87 0-3.22-1.31-3.22-3.08v-.81c0-1.77 1.35-3.07 3.22-3.07h18.851c2.05 0 2.109-2.81 2.109-3.12v-2.93c0-.96-.38-2.09-2.109-2.09H179.42c-3.93 0-8.189-3.22-8.189-8.41v-4.53c0-3.54 3.34-8.64 9.359-8.64v.04h16.221c1.89 0 3.29 1.33 3.29 3.07v.81c0 1.76-1.391 3.08-3.221 3.08h-15.06c-1.98 0-3.11.97-3.11 2.67v2.69c0 1.1.92 2.61 2.971 2.61h13.6c3.749 0 7.519 2.36 7.519 7.61zm-41.29-22.58c1.811 0 3.221 1.42 3.221 3.23v24.03c0 5.59-4.391 9.64-10.45 9.64h-11.23c-6.06 0-10.449-4.05-10.449-9.64v-24.03a3.2 3.2 0 013.22-3.23h1.02c1.801 0 3.23 1.45 3.23 3.23v23.14c0 1.85 1.49 3.34 3.33 3.34h10.51c1.83 0 3.33-1.49 3.33-3.34v-23.14a3.235 3.235 0 013.229-3.229h1.039zm-35.36 22.58v4.89c0 5.601-3.36 9.21-8.55 9.21H97.72c-1.88 0-3.23-1.31-3.23-3.08v-.81c0-1.77 1.36-3.07 3.23-3.07h18.85c2.04 0 2.09-2.81 2.09-3.12v-2.93c0-.96-.36-2.09-2.09-2.09h-13.81c-3.95 0-8.19-3.22-8.19-8.41v-4.53c0-3.54 3.33-8.64 9.36-8.64l.02.04h16.23c1.88 0 3.29 1.33 3.29 3.07v.81c0 1.76-1.39 3.08-3.23 3.08h-15.06c-1.99 0-3.12.97-3.12 2.67v2.69c0 1.1.92 2.61 2.97 2.61h13.59c3.75 0 7.53 2.36 7.53 7.61z" fill="#73BA25"/><path d="M240 49.216l1.021-.19c.279.22.239.67.149 1.07-.189.93-.64 2.62-.95 3.42l-.26.66c-.359.98-.72 1.91-1.41 2.47-1.899 1.73-4.939 3.11-9.699 5.19-7.36 3.22-19.29 5.25-30.37 5.18-3.971-.09-7.811-.53-11.181-.91-10.319-1.18-17.779-2.02-19.33 7.36-1.96 11.76 9.101 26.04 9.211 26.17l-.011.39-.359.09s-17.63-8.12-18.061-8.36l-.56-.399-.45-.43c-1.33-1.28-4-4.15-9.42-10.43-10.51-12.15-22.81-13.75-32.29-11.44-2.31.55-5.25 2.24-7.16 4.14-4.95 4.88-4.39 14.71-4.11 18.29.33 4.05.54 4.35.63 4.68l-.06.41-.35.04-.2-.14-14.46-7.07-.55-2.36c-.37-1.56-.8-3.29-1.62-5.46-5.17-13.63-16.79-23.88-29.59-26.09-8.65-1.49-24.42-1.66-32.77 14.1-3.49 6.58-3.28 15.15.55 22.37 3.9 7.39 10.87 12.13 19.12 13.04 8.18.89 14.33-1 17.78-5.47 3.48-4.51 4.13-10.65 1.66-15.65-2.65-5.37-6.65-8.22-12.21-8.69-4.23-.38-7.37 1.38-8.5 3.18-.33.561-.93 1.601-.94 3.08v.05c0 4.03 3.69 5.13 4.44 5.181.23 0 1.34-.03 2.81-.4l.71-.229.49-.17.36-.07c2.68-.49 5.26 1.09 6.01 3.7.13.48.2.96.2 1.44 0 1.73-.88 3.34-2.34 4.32l.06-.022-.16.09-.24.15c-.77.49-1.48.76-2.23.99-2.1.69-3.96 1.01-5.83 1.01-6.38-.01-15.27-5.5-15.39-15.81-.06-5.82 2.86-11.12 8-14.53 5.92-3.91 16.15-5.24 25.64.58 11.68 7.15 14.73 21.15 11.68 30.7-4.43 13.83-16.89 21.22-33.34 19.75-11.65-1.04-22.47-7.19-28.91-16.45-2.86-4.1-4.98-8.67-6.12-13.23-2.63-10.43.03-21.51 2.01-26.42 6.3-15.61 18.36-29.04 35.81-39.93l1.1-.69C85.13-1.343 111.4-.423 130.63.247c22.681.79 46.87 8.61 50.21 9.72.011-.75.141-7.51.141-7.51l.1-.23.26-.07c1.521.21 34.11 5.05 47.841 13.05 1.699 1 2.539 2.04 3.59 3.12 3.79 3.92 8.81 20.25 9.34 23.62l-.2.34c-.2.07-.67.42-1.3.84-3.2 2.24-10.69 7.48-20.29 6.62-8.63-.76-19.9-5.71-33.49-14.66.601 1.41 3.43 8.11 3.91 9.24l.18.22c1.971 1.02 20.851 10.64 30.221 10.45 7.557-.15 15.627-3.84 18.857-5.78zm-8.78-18.83c.261-7.68-5.77-14.16-13.46-14.43-3.72-.13-7.27 1.19-9.989 3.73-2.73 2.54-4.29 5.99-4.42 9.71-.25 7.68 5.77 14.15 13.449 14.43 3.74.13 7.28-1.19 10-3.74 2.72-2.54 4.28-5.98 4.42-9.7zm-154.9 95.79c1.3-.619 2.92-1.38 5.06-1.38h.66c3.74 0 6.16 2.23 6.16 5.66v15.02c0 .91-.74 1.65-1.63 1.65h-.64c-.91 0-1.63-.74-1.63-1.65v-14.48c0-1.36-1.11-2.47-2.46-2.47h-5.43a2.466 2.466 0 00-2.46 2.47v14.48c0 .91-.74 1.65-1.63 1.65h-.64c-.91 0-1.63-.74-1.63-1.65v-19.14c0-.819.55-1.399 1.31-1.399h.63c.6 0 1.04.26 1.28.77l.45.82c.19.34.29.36.54.36.56 0 1.25-.34 2.06-.71zm-10.77 4.07v4.43c0 1.891-1.1 3.011-2.92 3.011H51.26v3.34c0 1.65.93 2.51 2.7 2.51h6.3c.94 0 1.63.65 1.63 1.54v.5c0 .9-.69 1.55-1.63 1.55h-7.68c-2.84 0-5.24-2.52-5.24-5.479v-11.432c0-2.92 2.47-5.279 5.51-5.279l.01.02h7.17c3.04 0 5.52 2.38 5.52 5.29zm-3.94 4.04v-3.55c0-1.24-.96-2.2-2.19-2.2h-5.98c-1.24 0-2.19.98-2.19 2.2v3.55h10.36zm-34.07 6.77c0 .94.52 1.75 1.29 2.17l-.92 2.03c-.17 0-.36.3-.36.58v9.69c0 .89-.73 1.63-1.63 1.63h-.64c-.92 0-1.63-.73-1.63-1.63v-29.19c0-.78.58-1.4 1.27-1.4h.73c.62 0 1.12.48 1.23.73l.48.95c.12.17.33.27.55.27l.91 1.96a2.433 2.433 0 00-1.28 2.17z" fill="#73BA25"/><path d="M35.66 124.806c3.75 0 6.16 2.23 6.16 5.66v11.14c0 3.49-2.36 5.65-6.16 5.65h-.67c-2.15 0-3.77-.74-5.06-1.33-.8-.37-1.48-.67-2.02-.67l.92-2.03c.35.19.75.3 1.17.3h5.43a2.46 2.46 0 002.46-2.47v-10.04c0-1.38-1.08-2.46-2.46-2.46H30c-.43 0-.83.11-1.18.29l-.91-1.96c.54 0 1.22-.32 2-.7 1.31-.62 2.92-1.39 5.07-1.39v.01zm-17.56 5.41v11.521c0 2.96-2.4 5.37-5.34 5.37H5.32c-2.93 0-5.32-2.41-5.32-5.37v-11.52c0-2.92 2.47-5.28 5.51-5.28h7.08c3.04 0 5.51 2.37 5.51 5.28zm-3.92 11.07v-10.5c0-1.22-1.03-2.25-2.24-2.25h-5.8c-1.23 0-2.24 1.01-2.24 2.25v10.5c0 1.26.96 2.24 2.19 2.24h5.85c1.24 0 2.24-1.01 2.24-2.24z" fill="#73BA25"/></svg>