<?xml version="1.0" encoding="UTF-8" standalone="no"?>
<!-- Created with Inkscape (http://www.inkscape.org/) -->

<svg
   width="168.4469mm"
   height="100.78463mm"
   viewBox="0 0 168.4469 100.78463"
   version="1.1"
   id="svg1"
   xml:space="preserve"
   sodipodi:docname="Tech-Guppy_logo.svg"
   inkscape:version="1.3.2 (091e20e, 2023-11-25, custom)"
   inkscape:export-filename="Tech-Guppy_logo.png"
   inkscape:export-xdpi="96"
   inkscape:export-ydpi="96"
   xmlns:inkscape="http://www.inkscape.org/namespaces/inkscape"
   xmlns:sodipodi="http://sodipodi.sourceforge.net/DTD/sodipodi-0.dtd"
   xmlns:xlink="http://www.w3.org/1999/xlink"
   xmlns="http://www.w3.org/2000/svg"
   xmlns:svg="http://www.w3.org/2000/svg"><sodipodi:namedview
     id="namedview1"
     pagecolor="#ffffff"
     bordercolor="#000000"
     borderopacity="0.25"
     inkscape:showpageshadow="2"
     inkscape:pageopacity="0.0"
     inkscape:pagecheckerboard="0"
     inkscape:deskcolor="#d1d1d1"
     inkscape:document-units="mm"
     showgrid="false"
     inkscape:zoom="0.81218492"
     inkscape:cx="660.56385"
     inkscape:cy="468.48937"
     inkscape:window-width="2400"
     inkscape:window-height="1321"
     inkscape:window-x="1304"
     inkscape:window-y="1346"
     inkscape:window-maximized="1"
     inkscape:current-layer="g27" /><defs
     id="defs1"><rect
       x="-201.92445"
       y="98.499733"
       width="2129.4834"
       height="940.67249"
       id="rect3" /><linearGradient
       id="linearGradient21"
       inkscape:collect="always"><stop
         style="stop-color:#a11f1f;stop-opacity:0.95780593;"
         offset="0.13520408"
         id="stop22" /><stop
         style="stop-color:#000000;stop-opacity:1;"
         offset="0.63010204"
         id="stop21" /></linearGradient><linearGradient
       id="linearGradient19"
       inkscape:collect="always"><stop
         style="stop-color:#d6d6d6;stop-opacity:1;"
         offset="0"
         id="stop19" /><stop
         style="stop-color:#56f197;stop-opacity:0.9662447;"
         offset="1"
         id="stop20" /></linearGradient><linearGradient
       id="linearGradient17"
       inkscape:collect="always"><stop
         style="stop-color:#434343;stop-opacity:1;"
         offset="0.43877551"
         id="stop17" /><stop
         style="stop-color:#46c070;stop-opacity:0.95780593;"
         offset="1"
         id="stop18" /></linearGradient><linearGradient
       id="linearGradient15"
       inkscape:collect="always"><stop
         style="stop-color:#a5a5a5;stop-opacity:1;"
         offset="0"
         id="stop15" /><stop
         style="stop-color:#840085;stop-opacity:0.97046411;"
         offset="1"
         id="stop16" /></linearGradient><linearGradient
       id="linearGradient13"
       inkscape:collect="always"><stop
         style="stop-color:#515151;stop-opacity:1;"
         offset="0"
         id="stop13" /><stop
         style="stop-color:#921010;stop-opacity:0.95780593;"
         offset="1"
         id="stop14" /></linearGradient><linearGradient
       id="linearGradient11"
       inkscape:collect="always"><stop
         style="stop-color:#828282;stop-opacity:1;"
         offset="0"
         id="stop11" /><stop
         style="stop-color:#2431e0;stop-opacity:1;"
         offset="1"
         id="stop12" /></linearGradient><linearGradient
       id="linearGradient25"
       inkscape:collect="always"><stop
         style="stop-color:#000000;stop-opacity:1;"
         offset="0"
         id="stop25" /><stop
         style="stop-color:#000000;stop-opacity:0;"
         offset="1"
         id="stop26" /></linearGradient><linearGradient
       inkscape:collect="always"
       xlink:href="#linearGradient11"
       id="linearGradient12"
       x1="184.74484"
       y1="206.93024"
       x2="210.40944"
       y2="206.93024"
       gradientUnits="userSpaceOnUse" /><linearGradient
       inkscape:collect="always"
       xlink:href="#linearGradient13"
       id="linearGradient14"
       x1="187.58258"
       y1="209.12695"
       x2="200.88443"
       y2="209.12695"
       gradientUnits="userSpaceOnUse" /><linearGradient
       inkscape:collect="always"
       xlink:href="#linearGradient15"
       id="linearGradient16"
       x1="189.77191"
       y1="183.69156"
       x2="210.14484"
       y2="183.69156"
       gradientUnits="userSpaceOnUse" /><linearGradient
       inkscape:collect="always"
       xlink:href="#linearGradient17"
       id="linearGradient18"
       x1="203.73354"
       y1="201.85667"
       x2="237.99205"
       y2="201.85667"
       gradientUnits="userSpaceOnUse" /><linearGradient
       inkscape:collect="always"
       xlink:href="#linearGradient19"
       id="linearGradient20"
       x1="77.156372"
       y1="894.95544"
       x2="1081.1465"
       y2="894.95544"
       gradientUnits="userSpaceOnUse" /><linearGradient
       inkscape:collect="always"
       xlink:href="#linearGradient21"
       id="linearGradient22"
       x1="570.61792"
       y1="1061.4795"
       x2="1034.885"
       y2="1061.4795"
       gradientUnits="userSpaceOnUse" /><linearGradient
       inkscape:collect="always"
       xlink:href="#linearGradient25"
       id="linearGradient24"
       gradientUnits="userSpaceOnUse"
       x1="34.777283"
       y1="235.36188"
       x2="464.80508"
       y2="235.36188" /></defs><g
     inkscape:label="Layer 1"
     inkscape:groupmode="layer"
     id="layer1"
     style="display:inline"
     transform="translate(-314.58717,-139.82929)"><g
       id="g27"
       transform="translate(-1.2776402e-5,7.1200852)"
       style="display:inline"><g
         id="g1"
         transform="matrix(6.8844538,0,0,6.8844538,-1162.1443,-1122.7986)"
         style="display:none;fill:#444444;fill-opacity:1"
         sodipodi:insensitive="true"><path
           style="display:inline;fill:url(#linearGradient22);fill-opacity:1;stroke-width:4.53305;stroke-linecap:square"
           d="m 697.34803,1167.4707 c -20.26079,-0.7639 -41.78881,-2.1571 -47.84005,-3.0959 -13.0609,-2.0263 -25.84662,-9.884 -29.89431,-18.3721 -4.24939,-8.911 -14.7066,-19.3556 -24.10337,-24.0742 -4.77161,-2.3961 -8.91903,-4.5714 -9.21648,-4.834 -0.29745,-0.2626 -0.72094,-4.2177 -0.94108,-8.7891 -0.23453,-4.8702 -2.42321,-12.5684 -5.28591,-18.592 -2.68711,-5.6542 -5.07734,-11.1801 -5.31163,-12.2798 -0.23429,-1.0997 -1.27462,-5.9566 -2.31185,-10.793 -2.38119,-11.1031 -2.44756,-33.5014 -0.1122,-37.8651 0.97552,-1.8227 2.93466,-3.3141 4.35365,-3.3141 3.06179,0 23.60435,-10.3819 24.42806,-12.3455 0.31412,-0.7489 1.29102,-1.3616 2.1709,-1.3616 1.59842,0 27.33532,-15.10302 28.95561,-16.99185 0.47118,-0.54927 4.3263,-2.81032 8.56693,-5.02455 33.18128,-17.32551 50.08958,-25.08128 66.18247,-30.3576 17.52354,-5.74539 19.80049,-6.08365 38.33406,-5.69478 15.74653,0.33039 21.59662,1.18024 29.12756,4.2314 11.88355,4.81461 36.1173,7.31558 82.18795,8.48197 19.34845,0.48985 42.50371,1.24343 51.45615,1.67462 8.95244,0.43119 23.68881,0.79797 32.74748,0.81508 l 16.47031,0.0311 0.84589,20.5387 c 0.76816,18.65131 1.33668,21.52481 6.18662,31.26931 2.93741,5.9018 7.86701,13.4292 10.95467,16.7274 3.08766,3.2983 7.48398,9.4665 9.76961,13.7071 2.28562,4.2406 4.6133,8.0958 5.17262,8.5669 0.55932,0.4712 2.88149,6.2303 5.16038,12.798 7.46513,21.5144 14.94003,34.6115 27.46023,48.1146 6.6125,7.1316 12.0227,13.5974 12.0227,14.3684 0,2.3117 -4.4508,5.2888 -10.5426,7.0517 -9.0109,2.6078 -22.327,-0.9015 -30.98473,-8.1657 -8.00703,-6.7181 -16.2961,-10.7717 -22.02698,-10.7717 -4.80084,0 -23.12114,-8.0134 -30.25352,-13.2331 -3.06268,-2.2413 -5.56851,-3.516 -5.56851,-2.8326 0,0.6834 -1.7348,-0.3635 -3.85512,-2.3264 -5.002,-4.6308 -23.90098,-14.1622 -28.08097,-14.1622 -4.96179,0 -16.35478,-6.8239 -26.46078,-15.8488 -10.99032,-9.8147 -15.31533,-10.2488 -29.6556,-2.9768 -5.55139,2.8152 -12.43992,5.1185 -15.30787,5.1185 -12.64198,0 -28.86116,13.0913 -34.49464,27.8424 -2.7372,7.1672 -2.76784,8.5599 -0.37319,16.9686 1.43482,5.0384 3.45528,15.3288 4.48991,22.8677 1.03463,7.5389 2.28504,16.2129 2.77868,19.2756 l 0.89754,5.5685 -35.6304,-0.2631 c -19.59672,-0.1447 -52.2074,-0.8881 -72.46819,-1.652 z"
           id="path14"
           transform="matrix(0.04005128,0,0,0.04005128,167.24642,161.57484)"
           inkscape:label="fin-back" /><path
           style="display:inline;fill:url(#linearGradient18);stroke:none"
           d="m 225.69396,179.10251 c -0.7206,3.51707 -4.06469,1.90061 -5.55625,4.49791 l -0.52917,-0.26458 c -1.91753,3.11757 -5.9388,3.96872 -8.95072,5.60239 -1.96129,1.06381 -3.36337,2.81889 -5.0722,4.18719 0.76037,1.14257 6.26234,4.84895 3.1356,6.4286 -1.58195,0.79922 -3.35666,-0.0696 -4.98768,0.71515 1.71406,3.87557 3.14287,7.87289 4.62245,11.90625 1.38302,3.77017 1.28796,6.03262 5.16713,7.9375 l 0.79375,2.38125 c 1.8877,-0.59503 2.33525,1.47669 3.96875,2.11667 l 0.26459,-1.05833 h 0.26458 l 2.11667,1.05833 -1.05834,-3.175 h 1.5875 c 0.54657,-1.056 1.21492,-1.31441 2.38125,-1.32292 0.72245,-1.1453 1.94036,-0.78874 3.175,-0.79375 l 0.52917,-2.11666 -1.05833,-0.26459 c 1.21133,-1.22502 3.32603,-1.94261 5.02708,-2.11666 l 0.26458,-2.91042 -2.38125,-0.26458 c 0.02,-2.20851 1.1245,-1.94484 2.06543,-3.53044 0.44544,-0.75063 0.14314,-1.73924 0.482,-2.55498 0.62815,-1.51211 2.22691,-2.67812 2.47966,-4.23333 l 2.38125,0.26458 -1.05834,-2.64583 1.5875,-0.52917 c 0.0382,-0.9372 1.45767,-2.97326 0,-3.175 1.28273,-2.03722 -0.12965,-2.48422 -0.4767,-4.49792 -0.24338,-1.41218 0.31831,-3.56233 0.4767,-5.02708 -2.23172,-0.64439 -2.86089,-1.56296 -3.175,-3.70417 l -2.69074,-1.24268 -2.83141,-0.23886 z"
           id="path13"
           inkscape:label="tail-fin" /><path
           style="display:inline;fill:url(#linearGradient16);stroke:none"
           d="m 209.88025,173.54633 c -1.22195,0.84314 -2.1391,2.07763 -3.43959,2.80099 -4.64653,2.5845 -9.57364,3.87328 -13.17629,8.09082 -0.79742,0.93352 -0.76427,2.06019 -1.25779,3.13213 -0.63786,1.38544 -1.73763,2.521 -2.23467,3.96773 6.17325,2.88698 16.63339,4.14311 20.37292,-2.91042 H 207.499 c 1.00732,-1.93789 -0.55603,-3.50279 -1.32292,-5.29167 2.1389,-1.20075 6.03474,-5.07635 1.85208,-6.08541 0.89041,-0.99983 2.34677,-2.26149 1.85209,-3.70417 z"
           id="path15"
           inkscape:label="dorsal" /><path
           style="display:inline;fill:url(#linearGradient20);fill-opacity:1;stroke-width:4.53305;stroke-linecap:square"
           d="m 465.54449,1040.8819 c -0.82818,-3.167 -2.33707,-3.4268 -19.90377,-3.4268 -11.06741,0 -19.00765,-0.6905 -19.00765,-1.6531 0,-2.5226 -6.26184,-5.3199 -9.2995,-4.1543 -1.48181,0.5687 -2.75508,2.3007 -2.82947,3.849 -0.11267,2.345 -0.29864,2.3859 -1.1136,0.245 -0.99937,-2.6253 -3.82284,-5.0668 -5.91385,-5.1139 -0.64124,-0.014 -1.5,1.7086 -1.90841,3.8289 l -0.74253,3.8551 -0.23333,-3.8551 c -0.22639,-3.7405 -0.77272,-3.8551 -18.37758,-3.8551 -16.74061,0 -18.38796,-0.2983 -21.29448,-3.8551 l -3.15023,-3.8552 -1.72762,4.2835 c -1.67631,4.1563 -1.73085,4.169 -1.83622,0.4283 -0.0978,-3.4694 -0.96575,-3.8551 -8.67554,-3.8551 -6.44255,0 -8.56693,-0.6323 -8.56693,-2.5498 0,-1.6499 -2.41889,-2.9366 -6.85354,-3.6458 -4.13363,-0.6609 -6.85355,-2.0289 -6.85355,-3.447 0,-1.7313 -2.71008,-2.3511 -10.28031,-2.3511 -9.13805,0 -10.28032,-0.3807 -10.28032,-3.4267 0,-3.1174 -1.14226,-3.4268 -12.65056,-3.4268 -11.20959,0 -12.75263,-0.3903 -13.54668,-3.4268 -1.20567,-4.61052 -12.55756,-4.96433 -13.74293,-0.4283 -0.74626,2.8556 -0.79304,2.8556 -0.98233,0 -0.10932,-1.64916 -0.87986,-2.99846 -1.71231,-2.99846 -0.83245,0 -1.9168,-1.54204 -2.40967,-3.42677 -0.75852,-2.90059 -2.33708,-3.42677 -10.28032,-3.42677 -7.94322,0 -9.52179,-0.52618 -10.28031,-3.42677 -0.6864,-2.62482 -2.33709,-3.42677 -7.05338,-3.42677 -3.85377,0 -6.15726,-0.81874 -6.15726,-2.18854 0,-3.50731 -10.25175,-11.51855 -14.73996,-11.51855 -2.50866,0 -4.10728,-1.00031 -4.10728,-2.57008 0,-1.42781 -1.52301,-2.57008 -3.42677,-2.57008 -2.28451,0 -3.42677,-1.14226 -3.42677,-3.42677 0,-2.85565 -1.14226,-3.42677 -6.85355,-3.42677 -5.71128,0 -6.85354,-0.57112 -6.85354,-3.42677 0,-2.75348 -1.14226,-3.42677 -5.81354,-3.42677 -5.64668,0 -7.89355,-2.18443 -7.89355,-7.67419 0,-1.23957 -2.09925,-4.64612 -4.665,-7.5701 -4.35615,-4.96436 -5.43383,-5.31634 -16.27717,-5.31634 -9.17966,0 -11.61216,-0.53838 -11.61216,-2.57008 0,-1.41355 -0.74098,-2.57008 -1.64664,-2.57008 -0.90565,0 -3.13308,-1.59551 -4.94985,-3.54558 -1.81677,-1.95007 -4.35263,-3.40076 -5.63525,-3.22377 -1.28262,0.17699 -6.37991,0.23047 -11.32731,0.11881 -7.78535,-0.17569 -8.99528,-0.66392 -8.99528,-3.62978 0,-2.12834 -1.14225,-3.42677 -3.01462,-3.42677 -1.65804,0 -3.97765,-1.54204 -5.15468,-3.42677 -2.813911,-4.50579 -5.123153,-4.34208 -6.041977,0.42835 l -0.742528,3.85512 -0.233332,-3.85512 c -0.188649,-3.11685 -1.248407,-3.85512 -5.533897,-3.85512 -3.859599,0 -5.544175,-0.93157 -6.196684,-3.42677 -0.492867,-1.88473 -1.962731,-3.42677 -3.266366,-3.42677 -3.581586,0 -2.83975,-5.73604 1.056528,-8.1693 2.186195,-1.3653 3.426772,-3.99567 3.426772,-7.2657 0,-3.41386 0.85831,-5.12563 2.570078,-5.12563 1.807729,0 2.570079,-1.8264 2.570079,-6.15726 0,-4.71629 0.801957,-6.36697 3.426772,-7.05338 1.884724,-0.49286 3.426771,-1.86419 3.426771,-3.04738 0,-1.18489 3.078684,-2.64356 6.853544,-3.24718 4.43465,-0.70913 6.85354,-1.99587 6.85354,-3.64576 0,-2.64559 0.15438,-2.72873 6.28392,-3.38448 2.04262,-0.21852 5.63012,-2.465 7.97224,-4.99219 2.34211,-2.52718 4.54071,-3.74791 4.88577,-2.71273 0.86274,2.58822 6.55886,0.17325 6.55886,-2.78075 0,-1.83056 3.03203,-2.38677 13.0108,-2.38677 11.56984,0 13.11005,-0.37952 13.90692,-3.42677 0.62793,-2.40119 2.33709,-3.42677 5.71081,-3.42677 3.14466,0 5.08648,-1.04004 5.59826,-2.99843 0.70703,-2.70551 0.80299,-2.6876 0.98233,0.18332 0.13514,2.16346 1.06613,2.84889 2.90897,2.14173 1.49061,-0.572 3.03266,-1.04001 3.42677,-1.04001 0.39411,0 0.71656,-1.15653 0.71656,-2.57008 0,-1.99895 2.28451,-2.57007 10.28031,-2.57007 9.13806,0 10.28032,-0.38076 10.28032,-3.42678 0,-3.00316 1.14226,-3.42677 9.24031,-3.42677 6.63302,0 9.51858,-0.72518 10.22654,-2.57008 0.54243,-1.41354 2.48941,-2.57008 4.32664,-2.57008 5.15726,0 8.76084,-1.83731 8.76084,-4.46677 0,-1.67996 2.24178,-2.38677 7.5701,-2.38677 9.19752,0 12.99053,-1.30422 12.99053,-4.46678 0,-1.31272 1.10458,-2.38676 2.45461,-2.38676 1.35005,0 2.94404,-1.54205 3.54224,-3.42677 1.00098,-3.15383 2.5924,-3.42678 19.97981,-3.42678 17.45123,0 18.96053,-0.26137 19.7883,-3.42677 0.75614,-2.89143 2.33709,-3.42677 10.11991,-3.42677 8.08153,0 9.22379,-0.42436 9.22379,-3.42677 0,-3.27938 1.14226,-3.42677 26.55748,-3.42677 25.41522,0 26.55748,-0.14739 26.55748,-3.42677 0,-3.25755 1.14226,-3.42678 23.13071,-3.42678 19.41837,0 23.13071,-0.41248 23.13071,-2.57007 0,-2.171 4.01573,-2.57008 25.86119,-2.57008 24.42024,0 25.91112,-0.19094 26.75731,-3.42677 0.83497,-3.19294 2.3371,-3.42678 22.01249,-3.42678 11.61401,0 21.54816,-0.69864 22.0759,-1.55253 0.52774,-0.85389 2.39447,-1.17728 4.14829,-0.71865 1.91259,0.50015 3.60469,-0.24994 4.22799,-1.87424 0.81999,-2.13686 3.76124,-2.70812 13.94338,-2.70812 11.52348,0 12.90416,-0.34739 12.90416,-3.2468 0,-4.00014 5.5564,-4.70802 30.41259,-3.87453 12.96077,0.4346 17.56221,1.17219 17.56221,2.81511 0,1.22441 1.21959,2.69421 2.71022,3.26621 3.74239,1.4361 3.79422,1.41439 4.67562,-1.95841 0.74627,-2.85565 0.79304,-2.85565 0.98234,0 0.16075,2.42507 1.82062,2.99842 8.68054,2.99842 6.10988,0 8.92544,0.79274 10.06821,2.83478 0.93788,1.67588 2.7014,2.40693 4.31373,1.78822 1.50003,-0.57561 3.18302,-0.30922 3.73999,0.59199 0.55699,0.9012 4.82231,1.63855 9.4785,1.63855 6.65425,0 8.46581,0.59271 8.46581,2.76982 0,2.03756 1.14324,2.55128 4.32436,1.94317 2.37839,-0.45466 4.73697,-0.15903 5.24127,0.65695 0.50432,0.81598 5.80058,1.48361 11.7695,1.48361 8.06614,0 11.10579,0.65987 11.83881,2.57008 1.35207,3.52345 5.80723,3.24141 6.76623,-0.42835 0.74627,-2.85564 0.79304,-2.85564 0.98234,0 0.10931,1.64913 1.26537,2.99842 2.569,2.99842 1.30363,0 2.78869,1.60017 3.30013,3.55593 0.5621,2.14947 2.16594,3.4268 4.05495,3.22947 1.71878,-0.17955 8.71498,-0.23767 15.54711,-0.12915 11.21403,0.17811 12.42205,0.53055 12.42205,3.62407 0,3.3517 1.14226,3.42677 52.1428,3.42677 50.63802,0 52.17419,0.0989 53.23043,3.42677 1.05978,3.33907 2.5924,3.42677 59.88413,3.42677 57.35554,0 58.81848,0.084 59.69263,3.42678 0.74084,2.83293 2.33708,3.42677 9.2113,3.42677 6.45959,0 8.79277,0.76471 10.45526,3.42677 1.66554,2.66698 3.99565,3.42677 10.50915,3.42677 6.12016,0 8.65416,0.74287 9.42991,2.76447 0.67264,1.75286 2.30656,2.4387 4.46504,1.87424 1.8724,-0.48963 3.8361,-0.19159 4.3638,0.6623 0.5277,0.85389 4.4078,1.55253 8.6224,1.55253 5.2309,0 7.9759,0.81568 8.6491,2.57008 0.6086,1.58577 3.2128,2.57008 6.7998,2.57008 4.6713,0 5.8135,0.6733 5.8135,3.42677 0,2.28452 1.1423,3.42678 3.4268,3.42678 2.8557,0 3.4268,1.14225 3.4268,6.85354 0,5.71128 0.5711,6.85354 3.4268,6.85354 1.9932,0 3.4267,1.14226 3.4267,2.73049 0,1.50176 1.5421,3.13374 3.4268,3.6266 2.5979,0.67937 3.4268,2.33709 3.4268,6.85355 0,4.51645 0.8288,6.17417 3.4267,6.85354 2.575,0.67337 3.4268,2.33709 3.4268,6.69314 0,4.01064 0.792,5.79701 2.5701,5.79701 1.576,0 2.5701,1.60263 2.5701,4.14333 0,5.76536 1.6864,9.56376 4.246,9.56376 1.3082,0 2.6204,3.42495 3.3132,8.64745 0.6831,5.1501 2.1583,9.0355 3.6475,9.60693 1.7741,0.68079 2.5004,3.70916 2.5004,10.42583 0,8.59914 -0.5494,9.98447 -5.9969,15.1221 -3.2983,3.11067 -5.9968,6.2931 -5.9968,7.07206 0,0.77895 -1.5421,2.37932 -3.4268,3.55635 -2.1862,1.36529 -3.4268,3.99565 -3.4268,7.26568 0,3.98338 -0.7636,5.12565 -3.4268,5.12565 -2.8556,0 -3.4267,1.14226 -3.4267,6.85354 0,5.71128 -0.5712,6.85354 -3.4268,6.85354 -1.9038,0 -3.4268,1.14227 -3.4268,2.57008 0,1.57597 -1.6026,2.57008 -4.1433,2.57008 -5.7917,0 -9.5638,1.68947 -9.5638,4.28347 0,2.502 -4.682,4.76881 -6.9521,3.36584 -0.8265,-0.5108 -2.4844,0.64324 -3.6843,2.56453 -2.0758,3.32395 -3.8224,3.49325 -36.03713,3.49325 -28.19339,0 -33.85556,-0.40921 -33.85556,-2.44679 0,-1.68083 -2.95003,-2.81538 -9.42363,-3.6242 -6.24777,-0.7806 -9.42362,-1.96601 -9.42362,-3.51741 0,-1.28701 -1.7348,-2.7676 -3.85512,-3.29022 -2.12031,-0.52261 -30.64853,-0.73005 -63.39604,-0.46098 -55.30371,0.45439 -59.54086,0.27997 -59.54016,-2.4509 6.7e-4,-2.5531 -1.92898,-2.93294 -14.66004,-2.88568 -11.11502,0.0412 -14.88888,0.64872 -15.60379,2.51175 -1.24301,3.23923 -7.26797,3.15954 -8.52366,-0.11274 -0.78938,-2.05707 -4.55137,-2.57008 -18.84725,-2.57008 -14.29587,0 -18.05787,0.51301 -18.84724,2.57008 -0.62429,1.62684 -3.27706,2.57866 -7.22812,2.59347 -8.7743,0.0329 -13.95212,1.68803 -13.95212,4.45991 0,1.8185 -3.15806,2.37024 -13.56695,2.37024 -15.04665,0 -18.98738,0.92707 -18.98738,4.46678 0,1.70388 -2.57368,2.46144 -8.99528,2.64773 -4.9474,0.14355 -9.7663,0.44012 -10.70866,0.65906 -0.94236,0.21895 -2.67716,0.48703 -3.85512,0.59572 -1.17795,0.1087 -2.14173,1.35418 -2.14173,2.76772 0,1.41355 -1.10291,2.57008 -2.45091,2.57008 -1.34801,0 -2.78504,1.7348 -3.19345,3.85512 -0.73781,3.8307 -0.744,3.82955 -0.97585,-0.18332 -0.16956,-2.93456 -0.97415,-3.75414 -2.94355,-2.99842 -1.49061,0.57201 -3.03266,1.04001 -3.42677,1.04001 -0.3941,0 -0.71656,1.15653 -0.71656,2.57008 0,1.80772 -1.8264,2.57007 -6.15725,2.57007 -4.7163,0 -6.36698,0.80195 -7.05338,3.42676 -0.8667,3.3143 -5.64848,4.4466 -14.75852,3.4949 -1.88901,-0.1973 -3.49286,1.08 -4.05495,3.2295 -0.73977,2.8289 -2.2903,3.5559 -7.5836,3.5559 -4.62315,0 -6.65371,0.7467 -6.65371,2.4468 0,1.6808 -2.95003,2.8154 -9.42363,3.6242 -6.31896,0.7895 -9.42362,1.9591 -9.42362,3.5501 0,1.3049 -1.15653,2.3726 -2.57008,2.3726 -1.41354,0 -2.57008,0.9253 -2.57008,2.0561 0,1.5196 -0.50152,1.5545 -1.92217,0.1339 -2.39014,-2.3902 -6.64475,-0.9323 -6.64475,2.2768 0,1.5973 -2.03659,2.3868 -6.15726,2.3868 -4.7163,0 -6.36698,0.8019 -7.05338,3.4267 -0.85607,3.2737 -2.33709,3.4268 -33.13515,3.4268 -30.73425,0 -32.2898,0.16 -33.32666,3.4268 -0.83729,2.6381 -2.5924,3.4268 -7.62586,3.4268 -5.09728,0 -6.73574,-0.7553 -7.43437,-3.4268 z"
           id="path18"
           transform="matrix(0.04005128,0,0,0.04005128,167.24642,161.57484)"
           inkscape:label="Body" /><path
           style="display:inline;fill:url(#linearGradient14);stroke:none"
           d="m 200.88443,213.47682 v -0.52916 c -1.81138,-0.18714 -3.26828,0.87124 -5.02708,0.99892 -2.88096,0.20914 -5.32476,-2.86532 -5.55625,-5.49684 l 1.32291,-0.79375 h 0.26459 c 2.22252,1.93487 6.95983,0.74328 8.73125,-1.32292 -2.51243,-0.6123 -6.70121,2.95941 -8.5714,-0.29316 -0.36412,-0.63328 -0.50248,-1.38971 -0.68902,-2.08809 h 1.05833 c -1.4242,-1.35123 -4.31896,-1.58066 -4.77372,0.79498 -0.35808,1.87055 0.93146,3.01094 1.72346,4.49771 0.59647,1.11971 0.91512,2.38125 1.63058,3.43856 2.70005,3.9902 6.33159,2.74259 9.88635,0.79375 m -9.78958,-9.78958 -0.26459,0.26458 z"
           id="path19"
           inkscape:label="fin-back-forward" /><path
           style="fill:url(#linearGradient12);stroke:none;stroke-width:0.999983;stroke-dasharray:none"
           d="m 184.74485,204.30861 c 4.73064,1.63562 9.37559,3.43603 14.2875,4.80455 1.74819,0.48707 3.15576,1.49199 5.02709,1.54157 1.98998,0.0527 5.11203,0.99105 6.35,-1.05446 -8.20307,0 -14.66194,-2.28197 -21.80812,-6.20893 -1.32002,-0.72537 -3.35744,-0.66263 -3.85647,0.91727 z"
           id="path20"
           inkscape:label="fin-front-forward" /></g><g
         id="g11"
         transform="matrix(2.5902064,0,0,2.5902064,-107.69929,-170.72858)"
         style="display:none"><rect
           style="display:inline;fill:#ffffff;stroke-width:0.414711;stroke-linecap:square"
           id="rect1"
           width="4.9376888"
           height="469.37064"
           x="173.27609"
           y="-479.68033"
           transform="matrix(0,0.40233613,-0.40233613,0,37.431468,61.880982)" /><rect
           style="display:inline;fill:#ffffff;stroke-width:0.414711;stroke-linecap:square"
           id="rect1-6"
           width="4.9376888"
           height="469.37064"
           x="78.202187"
           y="-479.68033"
           transform="matrix(0,0.40233613,-0.40233613,0,37.431468,61.880982)" /><rect
           style="display:inline;fill:#ffffff;stroke-width:0.414711;stroke-linecap:square"
           id="rect1-8"
           width="4.9376888"
           height="469.37064"
           x="101.97067"
           y="-479.68033"
           transform="matrix(0,0.40233613,-0.40233613,0,37.431468,61.880982)" /><rect
           style="display:inline;fill:#ffffff;stroke-width:0.414711;stroke-linecap:square"
           id="rect1-56"
           width="4.9376888"
           height="469.37064"
           x="125.73914"
           y="-479.68033"
           transform="matrix(0,0.40233613,-0.40233613,0,37.431468,61.880982)" /><rect
           style="display:inline;fill:#ffffff;stroke-width:0.414711;stroke-linecap:square"
           id="rect1-0"
           width="4.9376888"
           height="469.37064"
           x="149.50761"
           y="-479.68033"
           transform="matrix(0,0.40233613,-0.40233613,0,37.431468,61.880982)" /><rect
           style="display:inline;fill:#ffffff;stroke-width:0.414711;stroke-linecap:square"
           id="rect1-5"
           width="4.9376888"
           height="469.37064"
           x="197.04457"
           y="-479.68033"
           transform="matrix(0,0.40233613,-0.40233613,0,37.431468,61.880982)" /><rect
           style="display:inline;fill:#ffffff;stroke-width:0.414711;stroke-linecap:square"
           id="rect1-5-3"
           width="4.9376888"
           height="469.37064"
           x="220.81305"
           y="-479.68033"
           transform="matrix(0,0.40233613,-0.40233613,0,37.431468,61.880982)" /><rect
           style="display:inline;fill:#ffffff;stroke-width:0.414711;stroke-linecap:square"
           id="rect1-5-3-2"
           width="4.9376888"
           height="469.37064"
           x="244.58151"
           y="-479.68033"
           transform="matrix(0,0.40233613,-0.40233613,0,37.431468,61.880982)" /><rect
           style="display:inline;fill:#ffffff;stroke-width:0.414711;stroke-linecap:square"
           id="rect1-5-3-2-4"
           width="4.9376888"
           height="469.37064"
           x="268.35001"
           y="-479.68033"
           transform="matrix(0,0.40233613,-0.40233613,0,37.431468,61.880982)" /><rect
           style="display:inline;fill:#ffffff;stroke-width:0.414711;stroke-linecap:square"
           id="rect1-5-3-2-9"
           width="4.9376888"
           height="469.37064"
           x="292.11847"
           y="-479.68033"
           transform="matrix(0,0.40233613,-0.40233613,0,37.431468,61.880982)" /><rect
           style="display:inline;fill:#ffffff;stroke-width:0.414711;stroke-linecap:square"
           id="rect1-5-3-2-7"
           width="4.9376888"
           height="469.37064"
           x="315.88696"
           y="-479.68033"
           transform="matrix(0,0.40233613,-0.40233613,0,37.431468,61.880982)" /><rect
           style="display:inline;fill:#ffffff;stroke-width:0.414711;stroke-linecap:square"
           id="rect1-5-3-2-5"
           width="4.9376888"
           height="469.37064"
           x="339.6554"
           y="-479.68033"
           transform="matrix(0,0.40233613,-0.40233613,0,37.431468,61.880982)" /><rect
           style="display:inline;fill:#ffffff;stroke-width:0.414711;stroke-linecap:square"
           id="rect1-5-3-2-42"
           width="4.9376888"
           height="469.37064"
           x="363.42389"
           y="-479.68033"
           transform="matrix(0,0.40233613,-0.40233613,0,37.431468,61.880982)" /><rect
           style="display:inline;fill:#ffffff;stroke-width:0.489457;stroke-linecap:square"
           id="rect1-5-3-2-42-5"
           width="6.5967522"
           height="489.38062"
           x="-393.78912"
           y="10.309696"
           transform="matrix(0,-0.40233613,0.40233613,0,37.431468,61.880982)" /><rect
           style="display:inline;fill:#ffffff;stroke-width:0.489457;stroke-linecap:square"
           id="rect20"
           width="6.5967522"
           height="489.38062"
           x="-417.55762"
           y="10.309696"
           transform="matrix(0,-0.40233613,0.40233613,0,37.431468,61.880982)" /></g><text
         xml:space="preserve"
         style="font-style:normal;font-variant:normal;font-weight:normal;font-stretch:normal;font-size:50.8px;line-height:0;font-family:'Robo Sapien Leftalic';-inkscape-font-specification:'Robo Sapien Leftalic';text-align:end;letter-spacing:0px;word-spacing:0px;text-anchor:end;display:inline;fill:#000000;fill-opacity:1;stroke:#000000;stroke-width:3.13192;stroke-linecap:square;stroke-dasharray:none;stroke-opacity:1"
         x="485.30862"
         y="231.92787"
         id="text11"
         mask="none"><tspan
           sodipodi:role="line"
           id="tspan11"
           style="font-size:50.8px;fill:#000000;fill-opacity:1;stroke:#000000;stroke-width:3.13192;stroke-dasharray:none;stroke-opacity:1"
           x="485.30862"
           y="231.92787">GUPPY</tspan></text><rect
         style="display:inline;fill:#ffffff;fill-opacity:1;fill-rule:nonzero;stroke:none;stroke-width:0.57014;stroke-linecap:square;stroke-dasharray:none;stroke-dashoffset:0;stroke-opacity:1"
         id="rect21-8"
         width="95.874977"
         height="1.2953607"
         x="342.18835"
         y="205.99022"
         mask="none" /><text
         xml:space="preserve"
         style="display:inline;font-style:normal;font-variant:normal;font-weight:normal;font-stretch:normal;font-size:14.9223px;font-family:'Robo Sapien Leftalic';-inkscape-font-specification:'Robo Sapien Leftalic';text-align:end;letter-spacing:0px;word-spacing:0px;text-anchor:end;white-space:pre;inline-size:118.049;fill:#000000;fill-opacity:1;stroke:url(#linearGradient24);stroke-width:1.00584;stroke-linecap:square;stroke-dasharray:none"
         x="78.64875"
         y="102.45333"
         id="text2"
         transform="matrix(3.4043027,0,0,3.4043027,179.36639,-178.64844)"
         inkscape:export-filename="Tech-Guppy_logo.svg"
         inkscape:export-xdpi="96"
         inkscape:export-ydpi="96"><tspan
           x="78.64875"
           y="102.45333"
           id="tspan2"><tspan
             style="line-height:0"
             id="tspan1">TECH</tspan></tspan></text><rect
         style="display:inline;fill:#ffffff;fill-opacity:1;fill-rule:nonzero;stroke:none;stroke-width:0.599519;stroke-linecap:square;stroke-dasharray:none;stroke-dashoffset:0;stroke-opacity:1"
         id="rect21"
         width="106.01048"
         height="1.2953607"
         x="318.67593"
         y="142.76828"
         transform="translate(7.1514021e-6)" /><text
         xml:space="preserve"
         transform="matrix(0.26458333,0,0,0.26458333,1.2776402e-5,-7.1200852)"
         id="text3"
         style="font-size:586.667px;font-family:'HoloLens MDL2 Assets';-inkscape-font-specification:'HoloLens MDL2 Assets';text-align:end;letter-spacing:0px;word-spacing:0px;white-space:pre;shape-inside:url(#rect3);display:inline;fill:#ffffff;fill-opacity:1;stroke:none;stroke-width:24.9676;stroke-linecap:square;stroke-opacity:1" /></g></g></svg>
