<svg class="lp-footer-logo" xmlns="http://www.w3.org/2000/svg" viewBox="0 0 170 36" role="presentation" aria-label="WordPress.com logo"><path d="M13 3c7.17 0 13 5.83 13 13s-5.83 13-13 13S0 23.17 0 16 5.83 3 13 3Zm.2 14.02-3.5 10.2a11.7 11.7 0 0 0 7.18-.2l-.08-.16-3.6-9.84ZM2.33 11.24A11.69 11.69 0 0 0 7.9 26.52Zm20.94-.85a11.03 11.03 0 0 1-.81 5.39L18.88 26.1a11.68 11.68 0 0 0 4.38-15.7Zm100.33 3.43c1-.02 2 .1 2.95.38v2.04a9.87 9.87 0 0 0-2.75-.43c-.88 0-1.7.29-1.7 1.04h.01c0 1.67 4.93.78 4.9 4.23 0 2.48-2.21 3.17-4.53 3.17-1-.02-1.98-.22-2.9-.59v-2.03c.92.33 2.19.63 2.99.63 1.13 0 1.9-.23 1.9-1.08 0-1.74-4.92-.82-4.92-4.39 0-1.84 1.67-2.97 4.05-2.97Zm-19 0h.24c2.97.12 4.02 2.25 4.02 4.29.01.48-.02.97-.08 1.46h-6.36c.06 2.17 1.29 2.67 3.13 2.67 1 0 1.94-.23 2.97-.61v2.05c-1.18.38-2.41.57-3.65.57-3.16 0-5.1-1.57-5.1-5.27 0-2.69 1.65-5.16 4.83-5.16Zm33.25 0c.95 0 1.9.16 2.8.48v2.1a8.2 8.2 0 0 0-2.76-.57c-1.51 0-2.78.79-2.78 3.12v.23c.08 2.36 1.32 3.06 2.9 3.06.77 0 1.64-.17 2.77-.6v2.04c-1 .34-1.91.57-3.08.57-3.7 0-5.16-2.11-5.16-5.18 0-3.25 2.03-5.25 5.31-5.25Zm-23.21 0c1-.02 1.98.11 2.94.38v2.04a9.87 9.87 0 0 0-2.75-.43c-.88 0-1.69.29-1.69 1.04 0 1.67 4.93.78 4.91 4.23 0 2.48-2.22 3.17-4.54 3.17-1-.02-1.98-.22-2.9-.59v-2.03c.93.33 2.2.63 3 .63 1.12 0 1.9-.23 1.9-1.08 0-1.74-4.93-.82-4.93-4.39 0-1.84 1.68-2.97 4.06-2.97ZM78.42 10v14h-2.33v-.92a5.45 5.45 0 0 1-3.2 1.17c-2.19 0-4.05-1.51-4.05-4.82 0-3.33 1.86-5.6 5.26-5.6a9 9 0 0 1 1.86.23V10h2.46Zm68.92 3.8.25.01c3.21.11 4.76 2.28 4.76 5.23 0 3.02-1.6 5.2-5.01 5.2-3.41 0-5.01-2.18-5.01-5.2 0-3.03 1.61-5.23 5.01-5.23Zm-92.53 0 .26.01c3.21.11 4.77 2.28 4.77 5.23 0 3.02-1.62 5.2-5.02 5.2-3.4 0-5-2.18-5-5.2 0-3.03 1.6-5.23 5-5.23Zm76.32 7.65V24h-2.47v-2.55h2.47Zm35.33-7.64-.01.01c2.01 0 3.15 1.4 3.15 3.32V24h-2.46v-6.26c0-1.41-.5-1.84-1.32-1.84-.7 0-1.68.4-2.6 1V24h-2.46v-6.27c0-1.4-.51-1.84-1.32-1.84a5.3 5.3 0 0 0-2.61.98V24h-2.48v-9.94h2.34v1.03a6.63 6.63 0 0 1 3.38-1.27c1.15 0 2.2.39 2.71 1.5l.3-.19c1.1-.74 2.32-1.32 3.38-1.32Zm-68.4.15c.22 0 .45.02.67.04v2.14h-.25c-1.57 0-2.51.48-3.28 1.94V24h-2.46v-9.94h2.31v1.63h.08l.1-.18a3 3 0 0 1 2.61-1.55ZM34.7 10l2.68 11.08 2.45-8.78-.65-2.3h2.81l2.79 10.72L47.57 10h2.55l-4 14h-2.95l-2.13-7.49L38.76 24H35.8L32 10h2.7Zm32.44 3.96c.22 0 .45.02.67.04v2.14h-.25c-1.57 0-2.51.48-3.28 1.94V24h-2.47v-9.94h2.3v1.64h.09v.01a3.06 3.06 0 0 1 2.94-1.75ZM86.04 10c2.99 0 5.16 1.51 5.16 4.51 0 3.01-2.17 4.62-5.16 4.62h-1.93V24h-2.64V10ZM13 4.31c-4.08 0-7.68 2.1-9.77 5.27l.76.01c1.22 0 3.11-.14 3.11-.14.63-.04.7.88.08.96h-.09c-.19.03-.7.08-1.25.1l4.25 12.67 2.56-7.67-1.82-5c-.63-.03-1.22-.1-1.22-.1-.63-.04-.56-1 .07-.96 0 0 .82.06 1.71.1l.36.02 1 .02h.17c1.22 0 2.95-.14 2.95-.14.63-.04.7.88.08.96h-.08c-.2.03-.7.08-1.26.1l4.22 12.57 1.17-3.9c.6-1.51.89-2.77.89-3.77 0-1.45-.52-2.45-.96-3.22-.6-.97-1.15-1.78-1.15-2.74 0-1.08.81-2.08 1.96-2.08l.15.01A11.64 11.64 0 0 0 13 4.31ZM74.35 15.8c-1.88 0-2.96 1.19-2.96 3.47 0 2.11.87 3.01 2.23 3.01.79 0 1.54-.4 2.34-1.13h-.01V16.1c-.5-.2-1.05-.31-1.6-.31Zm-19.52.03c-1.61 0-2.47 1.04-2.47 3.22 0 2.17.86 3.21 2.46 3.21h.16c1.44-.07 2.23-1.04 2.29-2.98v-.23c0-2.18-.84-3.22-2.44-3.22Zm92.51 0c-1.61 0-2.46 1.04-2.46 3.22 0 2.17.86 3.21 2.46 3.21h.16c1.44-.07 2.22-1.04 2.28-2.98v-.23c0-2.18-.84-3.22-2.44-3.22Zm-42.78-.14c-1.23 0-1.98.88-2.13 2.26h3.85c0-1.21-.4-2.26-1.72-2.26Zm-18.5-3.61h-1.95v5.01h1.95c1.65 0 2.38-1 2.38-2.57 0-1.56-.78-2.44-2.38-2.44Z"></path></svg>
