<svg class="svg-icon" style="width: 1em; height: 1em;vertical-align: middle;fill: currentColor;overflow: hidden;" viewBox="0 0 1024 1024" version="1.1" xmlns="http://www.w3.org/2000/svg"><path d="M864 320l-704 0C107.072 320 64 276.928 64 224l0-64C64 107.072 107.072 64 160 64l704 0C916.928 64 960 107.072 960 160l0 64C960 276.928 916.928 320 864 320zM160 128C142.4 128 128 142.4 128 160l0 64C128 241.6 142.4 256 160 256l704 0C881.6 256 896 241.6 896 224l0-64C896 142.4 881.6 128 864 128L160 128zM224 160C206.336 160 192 174.336 192 192s14.336 32 32 32S256 209.664 256 192 241.664 160 224 160zM352 160C334.336 160 320 174.336 320 192s14.336 32 32 32S384 209.664 384 192 369.664 160 352 160zM832 192c0-17.664-14.336-32-32-32l-128 0C654.336 160 640 174.336 640 192l0 0c0 17.664 14.336 32 32 32l128 0C817.664 224 832 209.664 832 192L832 192zM864 640l-704 0C107.072 640 64 596.928 64 544l0-64C64 427.072 107.072 384 160 384l704 0C916.928 384 960 427.072 960 480l0 64C960 596.928 916.928 640 864 640zM160 448C142.4 448 128 462.4 128 480l0 64C128 561.6 142.4 576 160 576l704 0C881.6 576 896 561.6 896 544l0-64C896 462.4 881.6 448 864 448L160 448zM224 480C206.336 480 192 494.336 192 512s14.336 32 32 32S256 529.664 256 512 241.664 480 224 480zM352 480C334.336 480 320 494.336 320 512s14.336 32 32 32S384 529.664 384 512 369.664 480 352 480zM832 512c0-17.664-14.336-32-32-32l-128 0C654.336 480 640 494.336 640 512l0 0c0 17.664 14.336 32 32 32l128 0C817.664 544 832 529.664 832 512L832 512zM864 960l-704 0C107.072 960 64 916.928 64 864l0-64C64 747.072 107.072 704 160 704l704 0c52.928 0 96 43.072 96 96l0 64C960 916.928 916.928 960 864 960zM160 768C142.4 768 128 782.4 128 800l0 64C128 881.6 142.4 896 160 896l704 0c17.6 0 32-14.4 32-32l0-64c0-17.6-14.4-32-32-32L160 768zM224 800C206.336 800 192 814.336 192 832s14.336 32 32 32S256 849.664 256 832 241.664 800 224 800zM352 800C334.336 800 320 814.336 320 832s14.336 32 32 32S384 849.664 384 832 369.664 800 352 800zM832 832c0-17.664-14.336-32-32-32l-128 0c-17.664 0-32 14.336-32 32l0 0c0 17.664 14.336 32 32 32l128 0C817.664 864 832 849.664 832 832L832 832z"  /></svg>