<svg class="svg-icon" style="width: 1em; height: 1em;vertical-align: middle;fill: currentColor;overflow: hidden;" viewBox="0 0 1024 1024" version="1.1" xmlns="http://www.w3.org/2000/svg"><path d="M496 640c-9.6 0-16-6.4-16-16s6.4-16 16-16h401.6c9.6 0 17.6-4.8 22.4-11.2 6.4-6.4 8-16 8-24V160v-4.8c0-8-3.2-14.4-9.6-20.8-4.8-3.2-12.8-6.4-19.2-6.4h-608L288 112v16c-17.6 0-32 14.4-32 32v48c0 9.6-6.4 16-16 16s-16-6.4-16-16v-48c0-35.2 28.8-64 64-64h611.2c16 0 32 4.8 43.2 16S960 139.2 960 155.2v416c1.6 16-4.8 33.6-16 46.4-11.2 12.8-27.2 20.8-44.8 22.4H496z" fill="" /><path d="M880 576H496c-9.6 0-16-6.4-16-16s6.4-16 16-16h368V192H320v16c0 9.6-6.4 16-16 16s-16-6.4-16-16v-32c0-9.6 6.4-16 16-16h576c9.6 0 16 6.4 16 16v384c0 9.6-6.4 16-16 16z" fill="" /><path d="M256 926.4c-116.8 0-192-32-192-83.2V340.8c0-51.2 75.2-83.2 192-83.2s192 32 192 83.2v502.4c0 49.6-75.2 83.2-192 83.2z m0-636.8c-110.4 0-160 30.4-160 51.2v502.4c0 20.8 49.6 51.2 160 51.2s160-30.4 160-51.2V340.8c0-22.4-49.6-51.2-160-51.2z" fill="" /><path d="M432 416H80c-9.6 0-16-6.4-16-16s6.4-16 16-16h352c9.6 0 16 6.4 16 16s-6.4 16-16 16zM432 800H80c-9.6 0-16-6.4-16-16s6.4-16 16-16h352c9.6 0 16 6.4 16 16s-6.4 16-16 16zM752 800H496c-9.6 0-16-6.4-16-16s6.4-16 16-16h256c9.6 0 16 6.4 16 16s-6.4 16-16 16z" fill="" /><path d="M688 800c-9.6 0-16-6.4-16-16v-96c0-9.6 6.4-16 16-16s16 6.4 16 16v96c0 9.6-6.4 16-16 16zM496 800c-9.6 0-16-6.4-16-16v-96c0-9.6 6.4-16 16-16s16 6.4 16 16v96c0 9.6-6.4 16-16 16zM192 320h128v32h-128zM224 832h64v32h-64z" fill="" /></svg>